<?xml version="1.0" encoding="UTF-8"?>
<svg xmlns:ns0="http://www.w3.org/2000/svg" xmlns="http://www.w3.org/2000/svg" viewBox="0 0 2140.88 488.67" fill="none" role="img" aria-labelledby="title"><title id="title">CWMS — Construction Work Management System</title><g><ns0:path d="M305 296 L305 333.67 L305.67 333.67 L305.67 296 Z" fill="#FFFFFF" fill-rule="evenodd" /><ns0:path d="M261.67 242 L261 242 L260.67 243 L259 243 L259 243.67 L258 244 L257.67 245 L256 245 L256 245.67 L255 246 L254.67 247 L253 247 L253 247.67 L252 248 L251.67 249 L250 249 L250 249.67 L249 250 L248.67 251 L247 251 L247 251.67 L246 252 L245.67 253 L244 253 L244 253.67 L243 254 L242.67 255 L241 255 L241 255.67 L240 256 L239.67 257 L238 257 L238 257.67 L237 258 L236.67 259 L235 259 L235 259.67 L234 260 L233.67 261 L232 261 L232 261.67 L231 262 L230.67 263 L229 263 L229 263.67 L228 264 L227.67 265 L226 265 L225.67 266 L224 266 L224 350.67 L226.67 350.67 L227 349.67 L230.67 349.67 L231 348.67 L233.67 348.67 L234 347.67 L237.67 347.67 L238 346.67 L241.67 346.67 L242 345.67 L244.67 345.67 L245 344.67 L249.67 344.67 L250 343.67 L253.67 343.67 L254 342.67 L258.67 342.67 L259 341.67 L261.67 341.67 Z" fill="#FFFFFF" fill-rule="evenodd" /><ns0:path d="M211.67 86 L207 88 L204.67 91 L203 91 L201.67 93 L200 93 L192.67 99 L189 100 L187.67 102 L186 102 L184.67 104 L183 104 L181.67 106 L180 106 L178.67 108 L177 108 L175.67 110 L174 110 L172.67 112 L171 112 L163.67 118 L160 119 L157 122 L157 172.67 L161.67 174.67 L167 180.67 L168.67 180.67 L172 184.67 L173.67 184.67 L176 187.67 L177.67 187.67 L181 191.67 L182.67 191.67 L186 195.67 L187.67 195.67 L191 199.67 L194 201 L194 354.67 L200 358.67 L211.67 354.67 L211.67 149 L212.67 148.67 L212.67 145 L211.67 144.67 L211.67 103 L212.67 102.67 L216 106.67 L218.67 105.67 L220.67 108.67 L220.67 107 L218.67 105 L216 106 L216.67 104 L211.67 100.67 Z" fill="#FFFFFF" fill-rule="evenodd" /><ns0:path d="M211 3 L19 121 L19 312.67 L213.67 426.67 L347 348.67 L386.67 332 L331 337 L272 350 L236 365 L212 381 L60.67 290.67 L61 143.67 L211 51.67 L311 111.67 L351.67 87.67 Z" fill="#FFFFFF" fill-rule="evenodd" /><ns0:path d="M3 336 L13 360.67 L45.67 357.67 L62 383.67 L46 411.67 L68 433.67 L73.67 436.67 L100 422.67 L105.67 423.67 L125 436 L122 466.67 L145 475.67 L149.67 474.67 L165 453.67 L190.67 457.67 L199 486.67 L225.67 486.67 L233.67 460 L256 453.67 L261 454 L277 475.67 L302.67 466.67 L299.67 437 L323 421.67 L353.67 436.67 L379.67 411.67 L363.67 383.67 L380 357.67 L412.67 360.67 L422.67 338.67 L422.67 335 L413.67 330 L399 335 L314 382 L283.67 404 L254 417 L214.67 441 L211 441 L171.67 417 L142 404 L113.67 383 L21.67 328 L17 327 Z" fill="#EA8F0C" fill-rule="evenodd" /><ns0:path d="M347.67 140 L343 140 L340 143 L339.67 146 L268 182 L268 203.67 L320.67 203.67 L322 206.67 L328 211 L328 330.67 L334.67 330.67 L343 320.67 L344.67 320.67 L352 328.67 L359.67 327.67 L359.67 211 L363.67 209.67 L367 203.67 L402.67 203.67 L410 211 L410 257.67 L404 260 L403 271.67 L410 277 L410 280.67 L405 285 L404 289.67 L408 294.67 L413.67 294.67 L416.67 292.67 L417.67 288 L415 288 L412.67 292 L409 291 L407.67 288.67 L408.67 285 L413.67 280.67 L413.67 276 L419.67 272.67 L419.67 261 L416.67 258 L413.67 257.67 L413.67 210 L415.67 209.67 L420 203.67 L427.67 203.67 L433.67 198.67 L433.67 191 L425.67 185 L419 184 L417.67 182 L393 170 L375.67 159 L355 149 L349.67 144.67 Z M333 309.67 L334.67 309.67 L335 310.67 L335.67 310.67 L336 311.67 L336.67 311.67 L337 312.67 L337.67 312.67 L338 313.67 L338.67 313.67 L339 314.67 L339.67 314.67 L340 315.67 L341 316 L341 318.67 L340 319 L340 319.67 L339 320 L339 320.67 L338 321 L338 321.67 L337 322 L336.67 323 L336 323 L336 324.67 L335 325 L334.67 326 L333 326 L332.67 325.67 L332.67 310 Z M354 308.67 L355 309 L355 325.67 L354.67 326 L354 326 L353.67 325 L352 325 L351.67 324.67 L351.67 323 L351 323 L350.67 322 L350 322 L349.67 321 L349 321 L348.67 320 L348 320 L347.67 319 L346.67 318.67 L346.67 317 L347.67 316.67 L347.67 315 L348.67 314.67 L348.67 314 L349.67 313.67 L349.67 313 L350.67 312.67 L350.67 312 L351.67 311.67 L351.67 311 L352.67 310.67 L352.67 310 L353.67 309.67 Z M334.67 304 L335 303.67 L352.67 303.67 L353 304 L353 305.67 L352 306 L352 306.67 L351 307 L350.67 308 L350 308 L350 309.67 L349 310 L349 310.67 L348 311 L348 311.67 L347 312 L347 312.67 L346 313 L346 313.67 L345 314 L344.67 315 L343 315 L342.67 314 L342 314 L341.67 313 L341 313 L340.67 312 L340 312 L339.67 311 L339 311 L338.67 310 L337.67 309.67 L337.67 308 L337 308 L336.67 307 L336 307 L335.67 306 L334.67 305.67 Z M335.67 298 L336.67 297.67 L336.67 297 L337.67 296.67 L337.67 296 L338.67 295.67 L338.67 295 L339.67 294.67 L339.67 294 L340.67 293.67 L341 292.67 L341.67 292.67 L341.67 291 L342 290.67 L344.67 290.67 L345 291.67 L345.67 291.67 L346 292.67 L346.67 292.67 L347 293.67 L347.67 293.67 L348 294.67 L348.67 294.67 L349 295.67 L349.67 295.67 L350 296.67 L350.67 296.67 L351 297.67 L352 298 L352 299.67 L351.67 300 L336 300 L335.67 299.67 Z M353 278.67 L354.67 278.67 L355 279 L355 295.67 L354.67 296 L353 296 L352.67 295 L351.67 294.67 L351.67 293 L351 293 L350.67 292 L350 292 L349.67 291 L349 291 L348.67 290 L348 290 L347.67 289 L346.67 288.67 L346.67 286 L347.67 285.67 L347.67 285 L348.67 284.67 L349 283.67 L349.67 283.67 L349.67 282 L350.67 281.67 L350.67 281 L351.67 280.67 L351.67 280 L352.67 279.67 Z M333 278.67 L333.67 278.67 L334 279.67 L335.67 279.67 L336 280 L336 281.67 L336.67 281.67 L337 282.67 L337.67 282.67 L338 283.67 L338.67 283.67 L339 284.67 L339.67 284.67 L340 285.67 L341 286 L341 288.67 L340 289 L340 289.67 L339 290 L339 290.67 L338 291 L338 291.67 L337 292 L337 292.67 L336 293 L336 293.67 L335 294 L334.67 295 L333 295 L332.67 294.67 L332.67 279 Z M334.67 275.67 L334.67 274 L335 273.67 L352.67 273.67 L353 274 L353 274.67 L352 275 L352 275.67 L351 276 L350.67 277 L350 277 L350 278.67 L349 279 L349 279.67 L348 280 L348 280.67 L347 281 L347 281.67 L346 282 L346 282.67 L345 283 L344.67 284 L342 284 L341.67 283.67 L341.67 282 L341 282 L340.67 281 L340 281 L339.67 280 L339 280 L338.67 279 L338 279 L337.67 278 L337 278 L336.67 277 L336 277 L335.67 276 Z M334.67 268 L335.67 267.67 L336 266.67 L336.67 266.67 L336.67 265 L337.67 264.67 L337.67 264 L338.67 263.67 L338.67 263 L339.67 262.67 L339.67 262 L340.67 261.67 L340.67 261 L341.67 260.67 L341.67 260 L342.67 259.67 L343 258.67 L344.67 258.67 L345 259.67 L345.67 259.67 L346 260.67 L346.67 260.67 L347 261.67 L347.67 261.67 L348 262.67 L348.67 262.67 L349 263.67 L349.67 263.67 L350 264.67 L351 265 L351 266.67 L351.67 266.67 L352 267.67 L353 268 L353 268.67 L352.67 269 L350 269 L349.67 270 L336 270 L335.67 269 L334.67 268.67 Z M353 246.67 L354.67 246.67 L355 247 L355 263.67 L354.67 264 L353 264 L352.67 263 L352 263 L351.67 262 L350.67 261.67 L350.67 260 L350 260 L349.67 259 L349 259 L348.67 258 L348 258 L347.67 257 L346.67 256.67 L346.67 254 L347.67 253.67 L347.67 253 L348.67 252.67 L349 251.67 L349.67 251.67 L349.67 250 L350.67 249.67 L350.67 249 L351.67 248.67 L351.67 248 L352.67 247.67 Z M333 246.67 L333.67 246.67 L334 247.67 L334.67 247.67 L335 248.67 L335.67 248.67 L336 249.67 L336.67 249.67 L337 250.67 L337.67 250.67 L338 251.67 L339 252 L339 253.67 L339.67 253.67 L340 254.67 L341 255 L341 256.67 L340 257 L340 257.67 L339 258 L338.67 259 L338 259 L338 260.67 L337 261 L337 261.67 L336 262 L336 262.67 L335 263 L334.67 264 L334 264 L333.67 263 L332.67 262.67 L332.67 247 Z M334.67 242 L335 241.67 L351.67 241.67 L352 242 L352 243.67 L351 244 L351 245.67 L350 246 L350 246.67 L349 247 L349 247.67 L348 248 L348 248.67 L347 249 L347 249.67 L346 250 L346 250.67 L345 251 L344.67 252 L342 252 L341.67 251.67 L341.67 250 L341 250 L340.67 249 L340 249 L339.67 248 L339 248 L338.67 247 L338 247 L337.67 246 L337 246 L336.67 245 L336 245 L335.67 244 L334.67 243.67 Z M335.67 235 L336.67 234.67 L336.67 234 L337.67 233.67 L337.67 233 L338.67 232.67 L339 231.67 L339.67 231.67 L339.67 230 L340.67 229.67 L340.67 229 L341.67 228.67 L342 227.67 L345.67 227.67 L346 228 L346 229.67 L346.67 229.67 L347 230.67 L347.67 230.67 L348 231.67 L348.67 231.67 L349 232.67 L349.67 232.67 L350 233.67 L350.67 233.67 L351 234.67 L352 235 L352 237.67 L351.67 238 L336 238 L335.67 237.67 Z M353 215.67 L354.67 215.67 L355 216 L355 232.67 L354.67 233 L354 233 L353.67 232 L352 232 L351.67 231.67 L351.67 230 L351 230 L350.67 229 L350 229 L349.67 228 L349 228 L348.67 227 L348 227 L347.67 226 L346.67 225.67 L346.67 223 L347.67 222.67 L347.67 221 L348.67 220.67 L348.67 220 L349.67 219.67 L349.67 219 L350.67 218.67 L350.67 218 L351.67 217.67 L351.67 217 L352.67 216.67 Z M333 215.67 L334.67 215.67 L335 216.67 L335.67 216.67 L336 217.67 L336.67 217.67 L337 218.67 L338 219 L338 220.67 L338.67 220.67 L339 221.67 L339.67 221.67 L340 222.67 L341 223 L341 224.67 L340 225 L339.67 226 L339 226 L339 227.67 L338 228 L338 228.67 L337 229 L337 229.67 L336 230 L336 230.67 L335 231 L334.67 232 L333 232 L332.67 231.67 L332.67 216 Z M334.67 211 L335 210.67 L351.67 210.67 L352 211 L352 212.67 L351 213 L350.67 214 L350 214 L350 215.67 L349 216 L349 216.67 L348 217 L348 217.67 L347 218 L347 218.67 L346 219 L346 219.67 L345 220 L344.67 221 L343 221 L342.67 220 L342 220 L341.67 219 L341 219 L340.67 218 L340 218 L339.67 217 L339 217 L338.67 216 L337.67 215.67 L337.67 214 L336 214 L335.67 213.67 L335.67 212 L335 212 Z M400.67 197.67 L400.67 197 L401.67 196.67 L402 195.67 L403.67 195.67 L404 194.67 L406.67 194.67 L407 195.67 L408.67 195.67 L409 196 L408.67 197 L405 197 L404.67 198 L401 198 Z M334.67 186 L335 185.67 L339.67 185.67 L340 186.67 L341 187 L341 187.67 L342.67 187.67 L343 188.67 L344 189 L344 189.67 L343.67 190 L341 190 L340.67 189 L339 189 L338.67 188 L336 188 L335.67 187 L334.67 186.67 Z M342.67 163.67 L343 164 L343 183.67 L342.67 184 L337 184 L336.67 183.67 L336.67 182 L337.67 181.67 L337.67 175 L338.67 174.67 L338.67 171 L339.67 170.67 L339.67 167 L340.67 166.67 L340.67 165 L341.67 164.67 L342 163.67 Z M347 162.67 L348 163 L348 165.67 L349 166 L349 168.67 L350 169 L350 172.67 L351 173 L351 176.67 L352 177 L352 183.67 L351.67 184 L348 184 L347.67 183.67 L347.67 178 L346.67 177.67 L346.67 163 Z M349.67 151 L350 150.67 L351.67 150.67 L352 151.67 L354.67 151.67 L355 152.67 L356 153 L356 153.67 L357.67 153.67 L358 154.67 L359.67 154.67 L360 155.67 L361.67 155.67 L362 156.67 L363.67 156.67 L364 157.67 L365.67 157.67 L366 158.67 L367 159 L367 159.67 L368.67 159.67 L369 160.67 L370.67 160.67 L371 161.67 L372.67 161.67 L373 162.67 L374.67 162.67 L375 163.67 L376.67 163.67 L377 164.67 L378.67 164.67 L379 165.67 L380 166 L380 166.67 L381.67 166.67 L382 167.67 L383.67 167.67 L384 168.67 L385.67 168.67 L386 169.67 L387.67 169.67 L388 170.67 L389 171 L389 171.67 L390.67 171.67 L391 172.67 L392.67 172.67 L393 173.67 L394.67 173.67 L395 174.67 L396.67 174.67 L397 175.67 L398.67 175.67 L399 176.67 L400.67 176.67 L401 177.67 L402 178 L402 178.67 L403.67 178.67 L404 179.67 L405.67 179.67 L406 180.67 L407.67 180.67 L408 181.67 L409.67 181.67 L410 182.67 L411 183 L411 183.67 L410.67 184 L390 184 L389.67 185 L389 185 L388.67 184 L371 184 L370.67 185 L369 185 L368.67 184 L365 184 L364.67 185 L361 185 L361 185.67 L360 186 L360 187.67 L359 188 L358.67 189 L357 189 L357 189.67 L356 190 L356 199.67 L355.67 200 L354 200 L353.67 199 L353 199 L352.67 198 L352 198 L351.67 197 L351 197 L350.67 196 L349.67 195.67 L349.67 194 L349 194 L348.67 193 L347.67 192.67 L347.67 191 L348.67 190.67 L348.67 190 L349.67 189.67 L349.67 189 L350.67 188.67 L351 187.67 L352.67 187.67 L352.67 187 L353.67 186.67 L354 185.67 L355.67 185.67 L355.67 185 L356.67 184.67 L356.67 180 L355.67 179.67 L355.67 175 L354.67 174.67 L354.67 171 L353.67 170.67 L353.67 167 L352.67 166.67 L352.67 163 L351.67 162.67 L351.67 158 L350.67 157.67 L350.67 154 L349.67 153.67 Z M353 204.67 L336 205 L335.67 204 L329 204 L329 204.67 L328 205 L327.67 204 L325 204 L324.67 201 L325.67 200.67 L326 199.67 L327.67 199.67 L327.67 187 L328.67 186.67 L329 185.67 L329.67 185.67 L329.67 185 L329 185 L328.67 184 L276 184 L275.67 183 L276.67 182.67 L276.67 182 L277.67 181.67 L278 180.67 L279.67 180.67 L280 179.67 L281.67 179.67 L282 178.67 L283.67 178.67 L284 177.67 L285.67 177.67 L286 176.67 L287.67 176.67 L288 175.67 L289.67 175.67 L290 174.67 L291.67 174.67 L292 173.67 L293.67 173.67 L294 172.67 L295.67 172.67 L296 171.67 L297.67 171.67 L297.67 171 L298.67 170.67 L299 169.67 L301.67 169.67 L301.67 169 L302.67 168.67 L303 167.67 L305.67 167.67 L305.67 167 L306.67 166.67 L307 165.67 L309.67 165.67 L310 164.67 L311.67 164.67 L311.67 164 L312.67 163.67 L313 162.67 L314.67 162.67 L315 161.67 L316.67 161.67 L317 160.67 L318.67 160.67 L319 159.67 L320.67 159.67 L321 158.67 L322.67 158.67 L323 157.67 L324.67 157.67 L325 156.67 L326.67 156.67 L327 155.67 L328.67 155.67 L328.67 155 L329.67 154.67 L330 153.67 L332.67 153.67 L333 152.67 L334.67 152.67 L335 151.67 L336.67 151.67 L337 150.67 L338.67 150.67 L338.67 150 L339.67 149.67 L340 152.67 L339 153 L339 156.67 L338 157 L338 161.67 L337 162 L337 164.67 L336 165 L336 168.67 L335 169 L335 171.67 L334 172 L334 176.67 L333 177 L333 179.67 L332 180 L332 182.67 L331 183 L331 184.67 L331.67 184.67 L332 185.67 L333.67 185.67 L334 187.67 L334.67 187.67 L335 188.67 L336 189 L336 189.67 L337.67 189.67 L338 190.67 L339 191 L339 194.67 L338 195 L338 195.67 L337 196 L336.67 197 L334 197 L334 197.67 L333 198 L333 200.67 L333.67 200.67 L334 201.67 L334.67 201.67 L335 200.67 L336.67 200.67 L336.67 200 L337.67 199.67 L337.67 199 L338.67 198.67 L338.67 198 L339.67 197.67 L340 196.67 L341.67 196.67 L341.67 196 L342.67 195.67 L343 194.67 L344.67 194.67 L345 195.67 L345.67 195.67 L346 196.67 L347 197 L347 198.67 L347.67 198.67 L348 199.67 L349.67 199.67 L350 200.67 L350.67 200.67 L351 201.67 L351.67 201.67 L352 202.67 L353 203 Z" fill="#EA8F0C" fill-rule="evenodd" /><ns0:path d="M223 267 L223 351.67 L224.67 351.67 L224.67 351 L223.67 350.67 L223.67 267 Z" fill="#D5DDE6" fill-rule="evenodd" /><ns0:path d="M157 266 L157 333.67 L158.67 333.67 L159 334.67 L160.67 334.67 L161 335.67 L162.67 335.67 L163 336.67 L164 337 L164 337.67 L165.67 337.67 L166 338.67 L167.67 338.67 L168 339.67 L169 340 L169 340.67 L170.67 340.67 L171 341.67 L172.67 341.67 L173 342.67 L174 343 L174 343.67 L175.67 343.67 L176 344.67 L177.67 344.67 L178 345.67 L179 346 L179 346.67 L179.67 346.67 L179.67 346 L180.67 345.67 L181 346 L181 347.67 L182.67 347.67 L183 348.67 L183.67 348.67 L184 349.67 L184.67 349.67 L184.67 265 L184 265 L184 267.67 L183.67 268 L182 268 L182 269.67 L181.67 270 L180 270 L179.67 269 L177 269 L176.67 268 L172 268 L171.67 267 L171 267 L170.67 268 L168 268 L167.67 269 L165 269 L164.67 270 L162 270 L161.67 271 L160.67 270.67 L160.67 269 L160 269 L160 270.67 L159 271 L159 273.67 L158.67 274 L157.67 273.67 L157.67 266 Z" fill="#D5DDE6" fill-rule="evenodd" /><ns0:path d="M271 257 L271 339.67 L272.67 339.67 L273 338.67 L278.67 338.67 L279 336.67 L281.67 336.67 L282 337.67 L284.67 337.67 L284.67 337 L285.67 336.67 L286 335.67 L286.67 335.67 L287 336.67 L289.67 336.67 L290 335.67 L295.67 335.67 L295.67 335 L296.67 334.67 L297 333.67 L298.67 333.67 L299 334.67 L302.67 334.67 L303 333.67 L304.67 333.67 L304.67 296 L305.67 295.67 L305.67 267 L305 267 L304.67 266 L303 266 L302.67 265 L301.67 264.67 L301.67 264 L301 264 L301 264.67 L301.67 264.67 L302 265.67 L301 266 L300.67 267 L300 267 L299.67 266 L298 266 L297.67 265 L294 265 L293.67 264 L292.67 263.67 L292.67 263 L292 263 L291.67 264 L286 264 L285.67 263 L285 263 L284.67 262 L284 262 L284 262.67 L284.67 262.67 L285 263.67 L283 264 L282.67 263 L281.67 262.67 L281.67 262 L280 262 L279.67 263 L279 263 L278.67 262 L275 262 L274.67 261 L272.67 260.67 L272.67 258 L272 258 L271.67 257 Z" fill="#D5DDE6" fill-rule="evenodd" /><ns0:path d="M146 186 L118.67 206 L102 216 L102 300.67 L108.67 303.67 L108.67 222 L114.67 217.67 L116 219 L115 307.67 L121.67 311.67 L121.67 213 L127.67 208.67 L128 315.67 L134.67 319.67 L134.67 204 L140.67 200.67 L141 323.67 L147.67 326.67 L147.67 186 Z" fill="#D5DDE6" fill-rule="evenodd" /><ns0:path d="M306.67 275 L306 275 L306 333.67 L305.67 334 L303 334 L303 334.67 L305.67 334.67 L305.67 334 L306.67 333.67 Z" fill="#E4EAF2" fill-rule="evenodd" /><ns0:path d="M270 260 L270 339.67 L270.67 339.67 L270.67 260 Z" fill="#E4EAF2" fill-rule="evenodd" /><ns0:path d="M270 244 L270 244.67 L271.67 244.67 L272 245 L272 245.67 L271 246 L271 256.67 L271.67 256.67 L272 257.67 L273 258 L273 260.67 L274.67 260.67 L275 261.67 L278.67 261.67 L279 262.67 L279.67 262.67 L280 261.67 L281.67 261.67 L282 262.67 L283 263 L283 263.67 L284.67 263.67 L285 262.67 L285.67 262.67 L286 263.67 L291.67 263.67 L291.67 263 L292.67 262.67 L293 263.67 L294 264 L294 264.67 L297.67 264.67 L298 265.67 L299.67 265.67 L300 266.67 L301 267 L301 267.67 L302.67 267.67 L302.67 266 L303.67 265.67 L303.67 265 L303 265 L302.67 264 L302 264 L302 264.67 L301 265 L300.67 264.67 L300.67 263 L300 263 L299.67 262 L298 262 L297.67 261 L297 261 L296.67 260 L295.67 259.67 L295.67 259 L294 259 L293.67 258 L293 258 L292.67 257 L291.67 256.67 L291.67 256 L290 256 L289.67 255 L288.67 254.67 L288.67 254 L288 254 L287.67 255 L286 255 L285.67 254 L284.67 253.67 L284.67 253 L285.67 252.67 L285.67 252 L285 252 L284.67 251 L283 251 L282.67 250 L281.67 249.67 L281.67 249 L280 249 L279.67 248 L278.67 247.67 L278.67 247 L277 247 L276.67 246 L276 246 L275.67 245 L274.67 244.67 L274.67 244 L274 244 L273.67 245 L273 245 L272.67 244 Z" fill="#E4EAF2" fill-rule="evenodd" /><ns0:path d="M157 223 L157 265.67 L158 266 L158 273.67 L158.67 273.67 L158.67 271 L159.67 270.67 L159.67 269 L160 268.67 L161 269 L161 270.67 L161.67 270.67 L162 269.67 L164.67 269.67 L165 268.67 L167.67 268.67 L168 267.67 L170.67 267.67 L171 266.67 L171.67 266.67 L172 267.67 L176.67 267.67 L177 268.67 L179.67 268.67 L180 269.67 L181.67 269.67 L181.67 268 L182 267.67 L183.67 267.67 L183.67 265 L184.67 264.67 L184.67 224 L184 224 L183.67 225 L182 225 L181.67 226 L178 226 L177.67 227 L176 227 L175.67 228 L174 228 L173.67 229 L172 229 L171.67 228 L164 228 L163.67 227 L162.67 226.67 L162.67 226 L162 226 L162 226.67 L161 227 L160.67 226.67 L160.67 225 L160 225 L160 226.67 L159 227 L159 230.67 L158 231 L157.67 230.67 L157.67 223 Z" fill="#E4EAF2" fill-rule="evenodd" /><ns0:path d="M241.67 176 L240 176 L239.67 177 L239 177 L238.67 176 L237 176 L237 176.67 L237.67 176.67 L238 177.67 L236 178 L235.67 179 L226 179 L225.67 180 L224.67 179.67 L224.67 178 L222.67 177.67 L222.67 176 L222 176 L222 181.67 L223.67 181.67 L224 182.67 L225.67 182.67 L226 183.67 L226.67 183.67 L227 184.67 L227.67 184.67 L228 185.67 L228.67 185.67 L229 186.67 L229.67 186.67 L230 187.67 L230.67 187.67 L231 188.67 L232 189 L232 189.67 L233.67 189.67 L234 190.67 L235.67 190.67 L236 191.67 L237 192 L237 192.67 L238.67 192.67 L239 193.67 L240 194 L240 194.67 L241.67 194.67 L242 195.67 L242.67 195.67 L243 196.67 L243.67 196.67 L244 197.67 L245 198 L245 198.67 L243 199 L242.67 200 L240 200 L240 200.67 L239 201 L238.67 202 L234 202 L233.67 201 L232 201 L231.67 200 L231 200 L230.67 201 L229 201 L228.67 202 L227 202 L226.67 201 L224 201 L224 201.67 L223 202 L222.67 200 L222 200 L222 209.67 L221 210 L221 255.67 L222.67 255.67 L222.67 255 L223.67 254.67 L224 252.67 L224.67 252.67 L225 253.67 L225.67 253.67 L225.67 253 L226.67 252.67 L227 250.67 L227.67 250.67 L228 251.67 L228.67 251.67 L228.67 251 L229.67 250.67 L229.67 250 L228.67 249.67 L229 248.67 L230.67 248.67 L231 249.67 L231.67 249.67 L231.67 249 L232.67 248.67 L233 246.67 L233.67 246.67 L234 247.67 L234.67 247.67 L234.67 247 L235.67 246.67 L236 245.67 L237.67 245.67 L237.67 245 L238.67 244.67 L239 242.67 L239.67 242.67 L240 243.67 L240.67 243.67 L240.67 243 L241.67 242.67 L242 241.67 L243.67 241.67 L243.67 241 L244.67 240.67 L245 238.67 L245.67 238.67 L246 239.67 L246.67 239.67 L246.67 239 L247.67 238.67 L247.67 238 L248.67 237.67 L249 236.67 L250.67 236.67 L251 235.67 L252.67 235.67 L252.67 235 L253.67 234.67 L254 233.67 L255.67 233.67 L255.67 233 L256.67 232.67 L257 231.67 L257.67 231.67 L257.67 187 L257 187 L256.67 186 L255 186 L254.67 185 L253.67 184.67 L253.67 184 L252 184 L251.67 183 L250.67 182.67 L250.67 182 L249 182 L248.67 181 L247.67 180.67 L247.67 180 L246 180 L246 180.67 L245 181 L244.67 178 L244 178 L243.67 177 L242 177 Z M247.67 198 L248 197.67 L249.67 197.67 L250 198.67 L253.67 198.67 L254 199.67 L255 200 L255 201.67 L254 202 L253.67 201 L251 201 L250.67 200 L249 200 L248.67 199 L247.67 198.67 Z" fill="#E4EAF2" fill-rule="evenodd" /><ns0:path d="M61 145 L61 289.67 L61.67 289.67 L61.67 145 Z" fill="#E4EAF2" fill-rule="evenodd" /><ns0:path d="M156 127 L156 171.67 L156.67 171.67 L156.67 127 Z" fill="#E4EAF2" fill-rule="evenodd" /><ns0:path d="M18 121 L18 312.67 L18.67 312.67 L18.67 121 Z" fill="#E4EAF2" fill-rule="evenodd" /><ns0:path d="M262 247 L262 335.67 L262.67 335.67 L262.67 247 Z" fill="#F2F5F8" fill-rule="evenodd" /><ns0:path d="M110.67 221 L110 221 L110 221.67 L109 222 L109 304.67 L109.67 304.67 L109.67 222 L110.67 221.67 Z" fill="#F2F5F8" fill-rule="evenodd" /><ns0:path d="M102.67 215 L102 215 L102 215.67 L101 216 L101 289.67 L101.67 289.67 L101.67 216 L102.67 215.67 Z" fill="#F2F5F8" fill-rule="evenodd" /><ns0:path d="M123.67 212 L123 212 L123 212.67 L122 213 L122 311.67 L121 312 L121 312.67 L122.67 312.67 L122.67 213 L123.67 212.67 Z" fill="#F2F5F8" fill-rule="evenodd" /><ns0:path d="M360.67 211 L360 211 L360 327.67 L359 328 L359 328.67 L360.67 328.67 Z" fill="#F2F5F8" fill-rule="evenodd" /><ns0:path d="M258.67 206 L258 206 L258 231.67 L257 232 L257 232.67 L256 233 L256 233.67 L256.67 233.67 L256.67 233 L257.67 232.67 L258 231.67 L258.67 231.67 Z" fill="#F2F5F8" fill-rule="evenodd" /><ns0:path d="M135.67 204 L135 204 L135 319.67 L134 320 L134 320.67 L135.67 320.67 Z" fill="#F2F5F8" fill-rule="evenodd" /><ns0:path d="M139 201 L139 201.67 L138 202 L138 202.67 L138.67 202.67 L139 201.67 L140 202 L140 323.67 L140.67 323.67 L141 324.67 L141.67 324.67 L142 325.67 L142.67 325.67 L142.67 325 L142 325 L141.67 324 L140.67 323.67 L140.67 201 Z" fill="#F2F5F8" fill-rule="evenodd" /><ns0:path d="M191 200 L191 200.67 L191.67 200.67 L192 201.67 L193 202 L193 354.67 L193.67 354.67 L193.67 202 L193 202 L192.67 201 Z" fill="#F2F5F8" fill-rule="evenodd" /><ns0:path d="M157 185 L156 186 L156 333.67 L157.67 334.67 L156.67 333.67 L156.67 223 L158 223 L158 230.67 L160 224.67 L161 225 L161 226.67 L162.67 225.67 L164 227.67 L171.67 227.67 L172 228.67 L173.67 228.67 L178 225.67 L181.67 225.67 L184.67 223.67 L185.67 348.67 L185.67 216 L184.67 215.67 L184.67 210 L185.67 209.67 L185.67 208 L182.67 205 L181 205 L178.67 202 L177 202 L173.67 198 L172 198 L167.67 193 L166 193 L163.67 190 L162 190 Z" fill="#F2F5F8" fill-rule="evenodd" /><ns0:path d="M148 185 L148 327.67 L148.67 327.67 L148.67 185 Z" fill="#F2F5F8" fill-rule="evenodd" /><ns0:path d="M223.67 162 L221 162 L221 209.67 L221.67 209.67 L221.67 200 L222 199.67 L223 200 L223 201.67 L223.67 201.67 L224 200.67 L226.67 200.67 L227 201.67 L228.67 201.67 L229 200.67 L230.67 200.67 L231 199.67 L231.67 199.67 L232 200.67 L233.67 200.67 L234 201.67 L238.67 201.67 L238.67 201 L239.67 200.67 L240 199.67 L242.67 199.67 L243 198.67 L244.67 198.67 L244.67 198 L244 198 L243.67 197 L243 197 L242.67 196 L241.67 195.67 L241.67 195 L240 195 L239.67 194 L238.67 193.67 L238.67 193 L237 193 L236.67 192 L235.67 191.67 L235.67 191 L234 191 L233.67 190 L232 190 L231.67 189 L231 189 L230.67 188 L230 188 L229.67 187 L229 187 L228.67 186 L228 186 L227.67 185 L227 185 L226.67 184 L225.67 183.67 L225.67 183 L224 183 L223.67 182 L221.67 181.67 L221.67 176 L222 175.67 L223 176 L223 177.67 L225 178 L225 179.67 L225.67 179.67 L226 178.67 L235.67 178.67 L236 177.67 L237.67 177.67 L237.67 177 L236.67 176.67 L237 175.67 L238.67 175.67 L239 176.67 L239.67 176.67 L240 175.67 L241.67 175.67 L242 176.67 L243.67 176.67 L244 177.67 L245 178 L245 180.67 L245.67 180.67 L246 181.67 L244 182 L244 182.67 L245.67 182.67 L246 181.67 L247.67 181.67 L248 182.67 L248.67 182.67 L249 181.67 L250.67 181.67 L251 182.67 L252 183 L252 183.67 L254 184 L254 184.67 L253 185 L253 185.67 L253.67 185.67 L254 184.67 L254.67 184.67 L255 185.67 L255.67 185.67 L255.67 185 L255 185 L254.67 184 L253.67 183.67 L253.67 183 L252 183 L251.67 182 L250.67 181.67 L250.67 181 L249 181 L248.67 180 L247.67 179.67 L247.67 179 L246 179 L245.67 178 L245 178 L244.67 177 L243.67 176.67 L243.67 176 L242 176 L241.67 175 L240.67 174.67 L240.67 174 L240 174 L239.67 175 L238 175 L237.67 174 L238.67 173.67 L238.67 173 L238 173 L237.67 172 L236 172 L235.67 171 L234.67 170.67 L234.67 170 L233 170 L232.67 169 L232 169 L231.67 168 L230.67 167.67 L230.67 167 L229 167 L228.67 166 L227.67 165.67 L227.67 165 L226 165 L225.67 164 L225 164 L224.67 163 L223.67 162.67 Z" fill="#F2F5F8" fill-rule="evenodd" /><ns0:path d="M221 136 L221 148.67 L220 149 L219.67 148 L219 148 L219 148.67 L219.67 148.67 L220 149.67 L221 150 L221 153.67 L220 154 L220 154.67 L220.67 154.67 L221 155.67 L222.67 155.67 L223 156.67 L224 157 L224 157.67 L225.67 157.67 L226 158.67 L227 159 L227 159.67 L228.67 159.67 L229 160.67 L230 161 L230 161.67 L231.67 161.67 L232 162.67 L233 163 L233 163.67 L234.67 163.67 L235 164.67 L236 165 L236 165.67 L237.67 165.67 L238 166.67 L239 167 L239 167.67 L240.67 167.67 L241 168.67 L241.67 168.67 L242 169.67 L243 170 L243 170.67 L244.67 170.67 L245 171.67 L246 172 L246 172.67 L247.67 172.67 L248 173.67 L248.67 173.67 L249 174.67 L250 175 L250 175.67 L251.67 175.67 L252 176.67 L253 177 L253 177.67 L254.67 177.67 L255 178.67 L256 179 L256 179.67 L257.67 179.67 L257.67 168 L258.67 167.67 L258.67 167 L257.67 166.67 L257.67 165 L257 165 L256.67 164 L257.67 163.67 L257.67 163 L258.67 162.67 L258.67 162 L258 162 L257.67 161 L256.67 160.67 L256.67 160 L255 160 L254.67 159 L253.67 158.67 L253.67 158 L252 158 L251.67 157 L251 157 L250.67 156 L249.67 155.67 L249.67 155 L248 155 L247.67 154 L247 154 L246.67 153 L245.67 152.67 L245.67 152 L244 152 L243.67 151 L243 151 L242.67 150 L241.67 149.67 L241.67 149 L240 149 L239.67 148 L238.67 147.67 L238.67 147 L237 147 L236.67 146 L235.67 145.67 L235.67 145 L234 145 L233.67 144 L232.67 143.67 L232.67 143 L231 143 L230.67 142 L230 142 L229.67 141 L229 141 L228.67 140 L227.67 139.67 L227.67 139 L226 139 L225.67 138 L224.67 137.67 L224.67 137 L223 137 L222.67 136 Z" fill="#F2F5F8" fill-rule="evenodd" /><ns0:path d="M219 104 L219 104.67 L219.67 104.67 L220 105.67 L220.67 105.67 L221 106.67 L222 107 L222 109.67 L221 110 L221 122.67 L220 123 L219.67 122 L219 122 L219 122.67 L220 123 L220 124.67 L219 125 L218.67 126 L217 126 L216.67 125 L216 125 L216 125.67 L216.67 125.67 L217 126.67 L218 127 L218 127.67 L219.67 127.67 L220 128.67 L221 129 L221 129.67 L222.67 129.67 L223 130.67 L224 131 L224 131.67 L225.67 131.67 L226 132.67 L227.67 132.67 L228 133.67 L228.67 133.67 L229 134.67 L230 135 L230 135.67 L231.67 135.67 L232 136.67 L233 137 L233 137.67 L234.67 137.67 L235 138.67 L235.67 138.67 L236 139.67 L237 140 L237 140.67 L238.67 140.67 L239 141.67 L239.67 141.67 L240 142.67 L240.67 142.67 L241 143.67 L242 144 L242 144.67 L243.67 144.67 L244 145.67 L245 146 L245 146.67 L246.67 146.67 L247 147.67 L248 148 L248 148.67 L249.67 148.67 L250 149.67 L250.67 149.67 L251 150.67 L252 151 L252 151.67 L253.67 151.67 L254 152.67 L255 153 L255 153.67 L256.67 153.67 L257 154.67 L258.67 154.67 L258.67 154 L257.67 153.67 L257.67 133 L256 133 L255.67 132 L255 132 L254.67 131 L253.67 130.67 L253.67 130 L252 130 L251.67 129 L251 129 L250.67 128 L250 128 L249.67 127 L248.67 126.67 L248.67 126 L247 126 L246.67 125 L246 125 L245.67 124 L244.67 123.67 L244.67 123 L243 123 L242.67 122 L242 122 L241.67 121 L240.67 120.67 L240.67 120 L239 120 L238.67 119 L238 119 L237.67 118 L236.67 117.67 L236.67 117 L235 117 L234.67 116 L234 116 L233.67 115 L232.67 114.67 L232.67 114 L231 114 L230.67 113 L230 113 L229.67 112 L228.67 111.67 L228.67 111 L227 111 L226.67 110 L226 110 L225.67 109 L224.67 108.67 L224.67 108 L223 108 L222.67 107 L222 107 L221.67 106 L221 106 L220.67 105 L220 105 L219.67 104 Z" fill="#F2F5F8" fill-rule="evenodd" /></g><g transform="translate(471.67 0) scale(2.04)"><ns0:path d="M692 229 L692 230.67 L812.67 230.67 L812.67 229 Z" fill="#FFFFFF" fill-rule="evenodd" /><ns0:path d="M7 229 L7 230.67 L128.67 230.67 L128.67 229 Z" fill="#FFFFFF" fill-rule="evenodd" /><ns0:path d="M666 222 L666 237.67 L666.67 237.67 L667 236.67 L674.67 236.67 L674.67 236 L675.67 235.67 L675.67 235 L676.67 234.67 L677 233.67 L677.67 233.67 L677.67 231 L678.67 230.67 L678.67 227 L677.67 226.67 L677.67 225 L677 225 L676.67 224 L675.67 223.67 L675.67 223 L674 223 L673.67 222 Z M668 223.67 L673.67 223.67 L674 224.67 L674.67 224.67 L675 225.67 L675.67 225.67 L676 226.67 L677 227 L677 231.67 L676 232 L676 232.67 L675 233 L675 233.67 L674 234 L673.67 235 L672 235 L671.67 236 L668 236 L667.67 235.67 L667.67 224 Z" fill="#FFFFFF" fill-rule="evenodd" /><ns0:path d="M648 222 L648 237.67 L648.67 237.67 L649 236.67 L657.67 236.67 L657.67 236 L650 236 L649.67 235.67 L649.67 231 L650.67 230.67 L651 229.67 L655.67 229.67 L655.67 229 L652 229 L651.67 228 L650 228 L649.67 227.67 L649.67 224 L650 223.67 L656.67 223.67 L656.67 223 L657.67 222.67 L657.67 222 Z" fill="#FFFFFF" fill-rule="evenodd" /><ns0:path d="M630 222 L630 236.67 L636.67 236.67 L637 237.67 L637.67 237.67 L638 236.67 L639.67 236.67 L639.67 236 L632 236 L631.67 235.67 L631.67 231 L632.67 230.67 L633 229.67 L637.67 229.67 L637.67 228 L637 228 L636.67 229 L634 229 L633.67 228 L632 228 L631.67 227.67 L631.67 224 L632 223.67 L638.67 223.67 L638.67 223 L639.67 222.67 L639.67 222 Z" fill="#FFFFFF" fill-rule="evenodd" /><ns0:path d="M611 223 L611 223.67 L610 224 L609.67 225 L609 225 L609 226.67 L608 227 L608 231.67 L609 232 L609 233.67 L610 234 L610 235.67 L611.67 235.67 L612 236.67 L614.67 236.67 L615 237.67 L616.67 237.67 L617 236.67 L619.67 236.67 L619.67 236 L620.67 235.67 L620.67 235 L621.67 234.67 L621.67 234 L620 234 L619.67 235 L618 235 L617.67 236 L614 236 L613.67 235 L612 235 L611.67 234 L610.67 233.67 L610.67 232 L609.67 231.67 L609.67 227 L610.67 226.67 L610.67 226 L611.67 225.67 L611.67 225 L612.67 224.67 L613 223.67 L615.67 223.67 L616 222.67 L616.67 222.67 L617 223.67 L618.67 223.67 L619 224.67 L621.67 224.67 L621.67 224 L621 224 L620.67 223 L619 223 L618.67 222 L613 222 L612.67 223 Z" fill="#FFFFFF" fill-rule="evenodd" /><ns0:path d="M592 222 L591.67 223 L590 223 L590 223.67 L589 224 L588.67 225 L588 225 L588 227.67 L587 228 L587 231.67 L588 232 L588 233.67 L588.67 233.67 L589 234.67 L589.67 234.67 L590 235.67 L591 236 L591 236.67 L593.67 236.67 L594 237.67 L596.67 237.67 L597 236.67 L598.67 236.67 L599 235.67 L600.67 235.67 L600.67 234 L599 234 L598.67 235 L597 235 L596.67 236 L593 236 L592.67 235 L592 235 L591.67 234 L591 234 L590.67 233 L589.67 232.67 L589.67 226 L590.67 225.67 L590.67 225 L591.67 224.67 L592 223.67 L594.67 223.67 L595 222.67 L595.67 222.67 L596 223.67 L598.67 223.67 L599 224.67 L600.67 224.67 L600.67 224 L600 224 L599.67 223 L598 223 L597.67 222 Z" fill="#FFFFFF" fill-rule="evenodd" /><ns0:path d="M568 222 L568 234.67 L568.67 234.67 L569 235.67 L570 236 L570 236.67 L571.67 236.67 L572 237.67 L574.67 237.67 L575 236.67 L576.67 236.67 L577 235.67 L578.67 235.67 L578.67 234 L579.67 233.67 L579.67 222 L578 222 L578 233.67 L577 234 L577 234.67 L576 235 L575.67 236 L572 236 L571.67 235 L571 235 L570.67 234 L569.67 233.67 L569.67 222 Z" fill="#FFFFFF" fill-rule="evenodd" /><ns0:path d="M551 222 L551 222.67 L550 223 L550 228.67 L550.67 228.67 L551 229.67 L554.67 229.67 L555 230.67 L556.67 230.67 L557 231.67 L558 232 L558 234.67 L557 235 L556.67 236 L553 236 L552.67 235 L551.67 234.67 L551.67 234 L550 234 L550 235.67 L550.67 235.67 L551 236.67 L552.67 236.67 L553 237.67 L555.67 237.67 L556 236.67 L557.67 236.67 L557.67 236 L558.67 235.67 L559 234.67 L559.67 234.67 L559.67 231 L559 231 L558.67 230 L557.67 229.67 L557.67 229 L555 229 L554.67 228 L553 228 L552.67 227 L551.67 226.67 L551.67 224 L552 223.67 L556.67 223.67 L557 224.67 L558.67 224.67 L558.67 223 L558 223 L557.67 222 Z" fill="#FFFFFF" fill-rule="evenodd" /><ns0:path d="M493 222 L493 222.67 L494 223 L494 223.67 L493 224 L493 224.67 L494 225 L494 227.67 L493 228 L493 236.67 L502.67 236.67 L502.67 236 L503.67 235.67 L503.67 235 L504.67 234.67 L505 233.67 L505.67 233.67 L505.67 231 L506.67 230.67 L506.67 228 L505.67 227.67 L505.67 225 L505 225 L504.67 224 L503.67 223.67 L503.67 223 L502 223 L501.67 222 Z M496 222.67 L496.67 222.67 L497 223.67 L501.67 223.67 L502 224.67 L502.67 224.67 L503 225.67 L503.67 225.67 L504 226.67 L505 227 L505 231.67 L504 232 L504 232.67 L503 233 L503 233.67 L502 234 L502 234.67 L501 235 L500.67 236 L496 236 L495.67 235 L494.67 234.67 L494.67 224 L495.67 223.67 Z" fill="#FFFFFF" fill-rule="evenodd" /><ns0:path d="M476 222 L476 236.67 L476.67 236.67 L477 237.67 L477.67 237.67 L478 236.67 L478.67 236.67 L479 237.67 L479.67 237.67 L480 236.67 L485.67 236.67 L485.67 236 L479 236 L478.67 235 L477.67 234.67 L477.67 222 Z" fill="#FFFFFF" fill-rule="evenodd" /><ns0:path d="M467.67 222 L466 222 L466 237.67 L466.67 237.67 L466.67 237 L467.67 236.67 Z" fill="#FFFFFF" fill-rule="evenodd" /><ns0:path d="M444 222 L444 222.67 L445 223 L445 224.67 L444 225 L444 232.67 L445 233 L445 234.67 L445.67 234.67 L446 235.67 L447 236 L447 236.67 L448.67 236.67 L449 237.67 L451.67 237.67 L452 236.67 L454.67 236.67 L454.67 236 L455.67 235.67 L455.67 234 L456.67 233.67 L456.67 222 L455 222 L455 233.67 L454 234 L454 234.67 L453 235 L452.67 236 L449 236 L448.67 235 L448 235 L447.67 234 L446.67 233.67 L446.67 229 L445.67 228.67 L445.67 222 Z" fill="#FFFFFF" fill-rule="evenodd" /><ns0:path d="M425 222 L425 236.67 L434.67 236.67 L434.67 236 L435.67 235.67 L436 234.67 L436.67 234.67 L436.67 231 L436 231 L435.67 230 L434.67 229.67 L434.67 228 L435.67 227.67 L435.67 224 L435 224 L434.67 223 L433.67 222.67 L433.67 222 Z M427.67 230 L428 229.67 L432.67 229.67 L433 230.67 L434.67 230.67 L435 231 L435 234.67 L434.67 235 L433 235 L432.67 236 L428 236 L427.67 235.67 Z M426.67 224 L427 223.67 L432.67 223.67 L433 224.67 L434 225 L434 227.67 L433.67 228 L431 228 L431 228.67 L430 229 L429.67 228 L428 228 L427.67 227.67 L427.67 226 L426.67 225.67 Z" fill="#FFFFFF" fill-rule="evenodd" /><ns0:path d="M371 222 L371 236.67 L380.67 236.67 L380.67 236 L374 236 L373.67 235 L372.67 234.67 L372.67 231 L373.67 230.67 L374 229.67 L379.67 229.67 L379.67 229 L378 229 L377.67 228 L376 228 L375.67 229 L374 229 L373.67 228 L372.67 227.67 L372.67 224 L373 223.67 L380.67 223.67 L380.67 222 Z" fill="#FFFFFF" fill-rule="evenodd" /><ns0:path d="M353 222 L352.67 223 L351 223 L351 223.67 L350 224 L350 225.67 L349 226 L349 228.67 L348 229 L348 229.67 L349 230 L349 233.67 L349.67 233.67 L350 234.67 L350.67 234.67 L351 235.67 L352 236 L352 236.67 L354.67 236.67 L355 237.67 L357.67 237.67 L358 236.67 L359.67 236.67 L360 235.67 L361.67 235.67 L361.67 235 L362.67 234.67 L362.67 229 L357 229 L357 230.67 L360.67 230.67 L361 231 L361 233.67 L360 234 L360 234.67 L359 235 L358.67 236 L354 236 L353.67 235 L353 235 L352.67 234 L352 234 L351.67 233 L350.67 232.67 L350.67 231 L349.67 230.67 L349.67 228 L350.67 227.67 L350.67 226 L351.67 225.67 L351.67 225 L352.67 224.67 L353 223.67 L355.67 223.67 L355.67 223 L356.67 222.67 L357 223.67 L359.67 223.67 L360 224 L360 225.67 L360.67 225.67 L360.67 225 L361.67 224.67 L361.67 224 L361 224 L360.67 223 L359.67 222.67 L359.67 222 Z" fill="#FFFFFF" fill-rule="evenodd" /><ns0:path d="M334 222 L334 222.67 L333 223 L333 225.67 L332 226 L332 227.67 L331 228 L331 230.67 L330 231 L330 232.67 L329 233 L329 234.67 L328 235 L328 236.67 L329.67 236.67 L329.67 235 L330.67 234.67 L331 233.67 L338.67 233.67 L339 234.67 L340 235 L340 236.67 L341.67 236.67 L341.67 235 L340.67 234.67 L340.67 233 L339.67 232.67 L339.67 231 L338.67 230.67 L338.67 228 L337.67 227.67 L337.67 226 L336.67 225.67 L336.67 224 L335.67 223.67 L335.67 222 Z M334 225.67 L335.67 225.67 L336 226 L336 228.67 L337 229 L337 230.67 L337.67 230.67 L338 231.67 L337.67 232 L335 232 L334.67 233 L333 233 L332.67 232 L331.67 231.67 L331.67 231 L332.67 230.67 L332.67 229 L333.67 228.67 L333.67 226 Z" fill="#FFFFFF" fill-rule="evenodd" /><ns0:path d="M307 222 L307 237.67 L307.67 237.67 L307.67 237 L308.67 236.67 L308.67 227 L309 226.67 L310.67 226.67 L311 227 L311 228.67 L311.67 228.67 L312 229.67 L312.67 229.67 L313 230.67 L313.67 230.67 L314 231.67 L315 232 L315 233.67 L315.67 233.67 L316 234.67 L316.67 234.67 L317 235.67 L317.67 235.67 L318 236.67 L318.67 236.67 L319 237.67 L319.67 237.67 L319.67 222 L318 222 L318 231.67 L317.67 232 L316 232 L315.67 231.67 L315.67 230 L315 230 L314.67 229 L314 229 L313.67 228 L313 228 L312.67 227 L312 227 L311.67 226 L310.67 225.67 L310.67 224 L310 224 L309.67 223 L308.67 222.67 L308.67 222 Z" fill="#FFFFFF" fill-rule="evenodd" /><ns0:path d="M291 222 L291 223.67 L290 224 L290 225.67 L289 226 L289 227.67 L288 228 L288 230.67 L287 231 L287 232.67 L286 233 L286 234.67 L285 235 L285 236.67 L286.67 236.67 L286.67 235 L287.67 234.67 L288 233.67 L295.67 233.67 L296 234.67 L297 235 L297 236.67 L298.67 236.67 L298.67 235 L297.67 234.67 L297.67 233 L296.67 232.67 L296.67 231 L295.67 230.67 L295.67 229 L294.67 228.67 L294.67 226 L293.67 225.67 L293.67 224 L292.67 223.67 L292.67 222 Z M291 225.67 L292.67 225.67 L293 226 L293 228.67 L294 229 L294 230.67 L295 231 L295 231.67 L294 232 L293.67 233 L293 233 L292.67 232 L292 232 L291.67 233 L290 233 L289.67 232 L288.67 231.67 L288.67 231 L289.67 230.67 L289.67 228 L290.67 227.67 L290.67 226 Z" fill="#FFFFFF" fill-rule="evenodd" /><ns0:path d="M262 222 L262 236.67 L263.67 236.67 L263.67 227 L264 226.67 L264.67 226.67 L265 227.67 L266 228 L266 229.67 L266.67 229.67 L267 230.67 L267.67 230.67 L268 231.67 L269 232 L269 232.67 L269.67 232.67 L269.67 232 L270.67 231.67 L271 230.67 L271.67 230.67 L271.67 229 L272.67 228.67 L273 227.67 L274.67 227.67 L275 228 L275 236.67 L276.67 236.67 L276.67 222 L275 222 L275 222.67 L274 223 L274 224.67 L273 225 L273 225.67 L272 226 L271.67 227 L271 227 L271 228.67 L270.67 229 L268 229 L267.67 228.67 L267.67 227 L267 227 L266.67 226 L266 226 L265.67 225 L264.67 224.67 L264.67 223 L264 223 L263.67 222 Z" fill="#FFFFFF" fill-rule="evenodd" /><ns0:path d="M204 222 L204 236.67 L205.67 236.67 L205.67 227 L206.67 226.67 L207 227.67 L207.67 227.67 L208 228.67 L208.67 228.67 L209 229.67 L209.67 229.67 L210 230.67 L210.67 230.67 L211 231.67 L212 232 L212 233.67 L212.67 233.67 L213 234.67 L213.67 234.67 L214 235.67 L214.67 235.67 L215 236.67 L215.67 236.67 L216 237.67 L216.67 237.67 L216.67 222 L215 222 L215 231.67 L214.67 232 L213 232 L212.67 231 L211.67 230.67 L211.67 229 L211 229 L210.67 228 L210 228 L209.67 227 L209 227 L208.67 226 L207.67 225.67 L207.67 224 L207 224 L206.67 223 L205.67 222.67 L205.67 222 Z" fill="#FFFFFF" fill-rule="evenodd" /><ns0:path d="M188 222 L188 223.67 L187 224 L187 225.67 L186 226 L186 227.67 L185 228 L185 229.67 L184 230 L184 232.67 L183 233 L183 234.67 L182 235 L182 236.67 L183.67 236.67 L183.67 235 L184.67 234.67 L185 233.67 L192.67 233.67 L193 234.67 L194 235 L194 236.67 L195.67 236.67 L195.67 235 L194.67 234.67 L194.67 232 L193.67 231.67 L193.67 230 L192.67 229.67 L192.67 228 L191.67 227.67 L191.67 226 L190.67 225.67 L190.67 224 L189.67 223.67 L189.67 222 Z M188 225.67 L189.67 225.67 L190 226 L190 228.67 L191 229 L191 230.67 L191.67 230.67 L192 231.67 L191.67 232 L188 232 L188 232.67 L187 233 L186.67 232 L185.67 231.67 L185.67 231 L186.67 230.67 L186.67 228 L187.67 227.67 L187.67 226 Z" fill="#FFFFFF" fill-rule="evenodd" /><ns0:path d="M165 222 L165 236.67 L174.67 236.67 L174.67 236 L168 236 L167.67 235 L166.67 234.67 L166.67 222 Z" fill="#FFFFFF" fill-rule="evenodd" /><ns0:path d="M154.67 222 L146 222 L146 236.67 L147.67 236.67 L147.67 232 L148 231.67 L153.67 231.67 L154 230.67 L155.67 230.67 L155.67 230 L156.67 229.67 L156.67 224 L156 224 L155.67 223 L154.67 222.67 Z M147.67 224 L148 223.67 L153.67 223.67 L154 224.67 L155 225 L155 228.67 L154 229 L153.67 230 L148 230 L147.67 229.67 Z" fill="#FFFFFF" fill-rule="evenodd" /><ns0:path d="M793 166 L793 184.67 L794.67 184.67 L794.67 183 L795.67 182.67 L795.67 181 L794.67 180.67 L794.67 179 L795.67 178.67 L795.67 178 L794.67 177.67 L794.67 174 L795.67 173.67 L796 172.67 L796.67 172.67 L797 173.67 L798 174 L798 175.67 L798.67 175.67 L799 176.67 L799.67 176.67 L800 177.67 L801 178 L801 179.67 L802.67 179.67 L802.67 178 L803.67 177.67 L803.67 177 L804.67 176.67 L804.67 176 L805.67 175.67 L806 174.67 L806.67 174.67 L806.67 173 L807.67 172.67 L808 173.67 L809 174 L809 184.67 L810.67 184.67 L810.67 166 L809 166 L809 167.67 L808 168 L808 168.67 L807 169 L807 169.67 L806 170 L805.67 171 L805 171 L805 172.67 L804 173 L804 173.67 L803 174 L802.67 175 L801 175 L800.67 174 L800 174 L799.67 173 L798.67 172.67 L798.67 171 L798 171 L797.67 170 L797 170 L796.67 169 L795.67 168.67 L795.67 167 L795 167 L794.67 166 Z" fill="#FFFFFF" fill-rule="evenodd" /><ns0:path d="M771 166 L771 184.67 L783.67 184.67 L783.67 183 L774 183 L773.67 182.67 L773.67 177 L774 176.67 L781.67 176.67 L781.67 174 L774 174 L773.67 173.67 L773.67 169 L774.67 168.67 L775 167.67 L775.67 167.67 L776 168.67 L776.67 168.67 L777 167.67 L777.67 167.67 L778 168.67 L779.67 168.67 L780 167.67 L780.67 167.67 L781 168.67 L782.67 168.67 L782.67 168 L783.67 167.67 L783.67 166 Z" fill="#FFFFFF" fill-rule="evenodd" /><ns0:path d="M748 166 L748 167.67 L751.67 167.67 L752 168.67 L753.67 168.67 L754 169 L754 178.67 L755 179 L755 183.67 L754 184 L754 184.67 L756.67 184.67 L756.67 169 L757 168.67 L758.67 168.67 L759 167.67 L760.67 167.67 L761 168.67 L761.67 168.67 L761.67 168 L762.67 167.67 L762.67 166 Z" fill="#FFFFFF" fill-rule="evenodd" /><ns0:path d="M731 166 L731 166.67 L730 167 L730 167.67 L729 168 L728.67 169 L728 169 L728 172.67 L729 173 L729 174.67 L730.67 174.67 L731 175.67 L732.67 175.67 L733 176.67 L736.67 176.67 L737 177.67 L738 178 L738 181.67 L737 182 L736.67 183 L732 183 L731.67 182 L731 182 L730.67 181 L730 181 L729.67 180 L729 180 L729 180.67 L728 181 L728 182.67 L728.67 182.67 L729 183.67 L730 184 L730 184.67 L734.67 184.67 L735 185.67 L735.67 185.67 L736 184.67 L738.67 184.67 L738.67 184 L739.67 183.67 L740 182.67 L740.67 182.67 L740.67 177 L740 177 L739.67 176 L738.67 175.67 L738.67 175 L736 175 L735.67 174 L733 174 L732.67 173 L732 173 L731.67 172 L730.67 171.67 L730.67 170 L731.67 169.67 L731.67 169 L732.67 168.67 L733 167.67 L735.67 167.67 L736 168.67 L736.67 168.67 L737 169.67 L737.67 169.67 L738 170.67 L738.67 170.67 L738.67 170 L739.67 169.67 L739.67 167 L738 167 L737.67 166 Z" fill="#FFFFFF" fill-rule="evenodd" /><ns0:path d="M705 166 L705 166.67 L706 167 L706 168.67 L707 169 L707 170.67 L707.67 170.67 L708 171.67 L709 172 L709 173.67 L710 174 L710 175.67 L711 176 L711 177.67 L712 178 L712 180.67 L711 181 L711 181.67 L712 182 L712 183.67 L711 184 L711 184.67 L714.67 184.67 L714.67 183 L713.67 182.67 L713.67 182 L714.67 181.67 L714.67 181 L713.67 180.67 L713.67 178 L714.67 177.67 L714.67 176 L715.67 175.67 L715.67 174 L716.67 173.67 L717 172.67 L717.67 172.67 L717.67 171 L718.67 170.67 L718.67 169 L719.67 168.67 L720 167.67 L720.67 167.67 L720.67 166 L718 166 L718 166.67 L717 167 L717 168.67 L716 169 L715.67 170 L715 170 L715 171.67 L714 172 L714 173.67 L713.67 174 L712 174 L711.67 173.67 L711.67 172 L710.67 171.67 L710.67 170 L710 170 L709.67 169 L708.67 168.67 L708.67 167 L708 167 L707.67 166 Z" fill="#FFFFFF" fill-rule="evenodd" /><ns0:path d="M688 166 L687.67 167 L686 167 L686 168.67 L685 169 L685 173.67 L685.67 173.67 L686 174.67 L687.67 174.67 L688 175.67 L689.67 175.67 L690 176.67 L692.67 176.67 L693 177.67 L694.67 177.67 L695 178 L695 179.67 L695.67 179.67 L696 180.67 L695 181 L695 181.67 L694 182 L693.67 183 L689 183 L688.67 182 L688 182 L687.67 181 L687 181 L686.67 180 L686 180 L686 180.67 L685 181 L685 182.67 L685.67 182.67 L686 183.67 L687 184 L687 184.67 L690.67 184.67 L691 185.67 L691.67 185.67 L692 184.67 L695.67 184.67 L695.67 184 L696.67 183.67 L696.67 182 L697.67 181.67 L697.67 177 L697 177 L696.67 176 L695.67 175.67 L695.67 175 L693 175 L692.67 174 L690 174 L689.67 173 L689 173 L688.67 172 L687.67 171.67 L687.67 169 L688 168.67 L689.67 168.67 L690 167.67 L691.67 167.67 L692 168.67 L693.67 168.67 L694 169.67 L696.67 169.67 L696.67 168 L696 168 L695.67 167 L694.67 166.67 L694.67 166 Z" fill="#FFFFFF" fill-rule="evenodd" /><ns0:path d="M651 166 L651 167.67 L655.67 167.67 L656 168.67 L657 169 L657 184.67 L659.67 184.67 L659.67 169 L660.67 168.67 L661 167.67 L665.67 167.67 L665.67 166 Z" fill="#FFFFFF" fill-rule="evenodd" /><ns0:path d="M627 166 L627 184.67 L628.67 184.67 L628.67 173 L629 172.67 L630.67 172.67 L631 173.67 L631.67 173.67 L632 174.67 L632.67 174.67 L633 175.67 L633.67 175.67 L634 176.67 L634.67 176.67 L635 177.67 L636 178 L636 179.67 L636.67 179.67 L637 180.67 L637.67 180.67 L638 181.67 L638.67 181.67 L639 182.67 L639.67 182.67 L640 183.67 L641 184 L641 184.67 L642.67 184.67 L642.67 166 L640 166 L640 177.67 L639.67 178 L638 178 L637.67 177 L636.67 176.67 L636.67 175 L636 175 L635.67 174 L635 174 L634.67 173 L634 173 L633.67 172 L633 172 L632.67 171 L631.67 170.67 L631.67 169 L631 169 L630.67 168 L630 168 L629.67 167 L628.67 166.67 L628.67 166 Z" fill="#FFFFFF" fill-rule="evenodd" /><ns0:path d="M605 166 L605 184.67 L617.67 184.67 L617.67 183 L608 183 L607.67 182.67 L607.67 177 L608 176.67 L615.67 176.67 L615.67 174 L608 174 L607.67 173.67 L607.67 169 L608 168.67 L616.67 168.67 L616.67 168 L617.67 167.67 L617.67 166 Z" fill="#FFFFFF" fill-rule="evenodd" /><ns0:path d="M577 166 L577 184.67 L578.67 184.67 L578.67 180 L579.67 179.67 L579.67 178 L578.67 177.67 L578.67 174 L579.67 173.67 L580 172.67 L581 173 L581 174.67 L581.67 174.67 L582 175.67 L582.67 175.67 L583 176.67 L583.67 176.67 L584 177.67 L585 178 L585 179.67 L586.67 179.67 L586.67 178 L587.67 177.67 L587.67 177 L588.67 176.67 L588.67 176 L589.67 175.67 L590 174.67 L590.67 174.67 L590.67 173 L591.67 172.67 L592 173.67 L593 174 L593 183.67 L592 184 L592 184.67 L595.67 184.67 L595.67 184 L594.67 183.67 L594.67 176 L595.67 175.67 L595.67 168 L595 168 L594.67 167 L595.67 166.67 L595.67 166 L594 166 L594 166.67 L593 167 L593 167.67 L592 168 L592 168.67 L591 169 L591 169.67 L590 170 L589.67 171 L589 171 L589 172.67 L588 173 L588 173.67 L587 174 L587 174.67 L586 175 L585.67 176 L584.67 175.67 L584.67 174 L584 174 L583.67 173 L582.67 172.67 L582.67 171 L582 171 L581.67 170 L581 170 L580.67 169 L580 169 L579.67 168 L578.67 167.67 L578.67 166 Z" fill="#FFFFFF" fill-rule="evenodd" /><ns0:path d="M555 166 L555 184.67 L567.67 184.67 L567.67 183 L558 183 L557.67 182.67 L557.67 177 L558 176.67 L565.67 176.67 L565.67 174 L558 174 L557.67 173.67 L557.67 169 L558.67 168.67 L559 167.67 L559.67 167.67 L560 168.67 L566.67 168.67 L566.67 168 L567.67 167.67 L567.67 166 Z" fill="#FFFFFF" fill-rule="evenodd" /><ns0:path d="M532 167 L532 167.67 L531 168 L531 168.67 L530 169 L529.67 170 L529 170 L529 171.67 L528 172 L528 178.67 L529 179 L529 180.67 L529.67 180.67 L530 181.67 L530.67 181.67 L531 182.67 L531.67 182.67 L532 183.67 L533 184 L533 184.67 L537.67 184.67 L538 185.67 L538.67 185.67 L539 184.67 L542.67 184.67 L542.67 184 L543.67 183.67 L543.67 183 L544.67 182.67 L545 181.67 L545.67 181.67 L545.67 175 L538 175 L538 176.67 L541.67 176.67 L542 177.67 L543.67 177.67 L544 178.67 L543 179 L543 180.67 L542 181 L542 181.67 L541 182 L540.67 183 L535 183 L534.67 182 L534 182 L533.67 181 L533 181 L532.67 180 L532 180 L531.67 179 L530.67 178.67 L530.67 173 L531.67 172.67 L531.67 171 L532.67 170.67 L532.67 170 L533.67 169.67 L534 168.67 L535.67 168.67 L536 167.67 L538.67 167.67 L539 168.67 L541.67 168.67 L542 169.67 L543 170 L543 170.67 L543.67 170.67 L543.67 170 L544.67 169.67 L544.67 168 L544 168 L543.67 167 L542 167 L541.67 166 L534 166 L533.67 167 Z" fill="#FFFFFF" fill-rule="evenodd" /><ns0:path d="M511 166 L511 168.67 L510 169 L510 170.67 L509 171 L509 173.67 L508 174 L508 175.67 L507 176 L507 177.67 L506 178 L506 179.67 L505 180 L505 182.67 L504 183 L504 184.67 L506.67 184.67 L506.67 182 L507 181.67 L508.67 181.67 L509 180.67 L516.67 180.67 L517 181.67 L518 182 L518 183.67 L518.67 183.67 L519 184.67 L521.67 184.67 L521.67 184 L520.67 183.67 L520.67 182 L519.67 181.67 L519.67 180 L518.67 179.67 L518.67 178 L517.67 177.67 L517.67 175 L516.67 174.67 L516.67 173 L515.67 172.67 L515.67 171 L514.67 170.67 L514.67 169 L513.67 168.67 L513.67 166 Z M512 171.67 L513.67 171.67 L514 172 L514 174.67 L515 175 L515 176.67 L516 177 L516 178.67 L515.67 179 L509 179 L508.67 178.67 L508.67 177 L509.67 176.67 L509.67 175 L510.67 174.67 L510.67 173 L511.67 172.67 Z" fill="#FFFFFF" fill-rule="evenodd" /><ns0:path d="M479 166 L479 184.67 L481.67 184.67 L481.67 173 L482 172.67 L483.67 172.67 L484 173 L484 174.67 L484.67 174.67 L485 175.67 L485.67 175.67 L486 176.67 L486.67 176.67 L487 177.67 L487.67 177.67 L488 178.67 L489 179 L489 180.67 L489.67 180.67 L490 181.67 L490.67 181.67 L491 182.67 L491.67 182.67 L492 183.67 L493 184 L493 184.67 L494.67 184.67 L494.67 166 L492 166 L492 172.67 L493 173 L493 173.67 L492 174 L492 174.67 L493 175 L493 176.67 L492 177 L491.67 178 L490 178 L489.67 177.67 L489.67 176 L489 176 L488.67 175 L488 175 L487.67 174 L487 174 L486.67 173 L485.67 172.67 L485.67 171 L485 171 L484.67 170 L484 170 L483.67 169 L483 169 L482.67 168 L482 168 L481.67 167 L480.67 166.67 L480.67 166 Z" fill="#FFFFFF" fill-rule="evenodd" /><ns0:path d="M461 166 L461 166.67 L460 167 L460 168.67 L459 169 L459 170.67 L458 171 L458 172.67 L457 173 L457 175.67 L456 176 L456 177.67 L455 178 L455 179.67 L454 180 L454 182.67 L453 183 L453 184.67 L455.67 184.67 L455.67 183 L456.67 182.67 L456.67 182 L457.67 181.67 L458 180.67 L465.67 180.67 L466 181.67 L467 182 L467 183.67 L467.67 183.67 L468 184.67 L470.67 184.67 L470.67 184 L469.67 183.67 L469.67 182 L468.67 181.67 L468.67 179 L467.67 178.67 L467.67 177 L466.67 176.67 L466.67 175 L465.67 174.67 L465.67 172 L464.67 171.67 L464.67 170 L463.67 169.67 L463.67 168 L462.67 167.67 L462.67 166 Z M461 171.67 L462.67 171.67 L463 172 L463 173.67 L464 174 L464 175.67 L465 176 L465 178.67 L464.67 179 L459 179 L458.67 178.67 L458.67 176 L459.67 175.67 L459.67 174 L460.67 173.67 L460.67 172 Z" fill="#FFFFFF" fill-rule="evenodd" /><ns0:path d="M426 166 L426 184.67 L428.67 184.67 L428.67 173 L429 172.67 L429.67 172.67 L430 173.67 L431 174 L431 175.67 L431.67 175.67 L432 176.67 L432.67 176.67 L433 177.67 L434 178 L434 179.67 L435.67 179.67 L435.67 179 L436.67 178.67 L436.67 177 L437.67 176.67 L437.67 176 L438.67 175.67 L439 174.67 L439.67 174.67 L439.67 173 L440 172.67 L441.67 172.67 L442 173 L442 184.67 L444.67 184.67 L444.67 166 L443 166 L443 166.67 L442 167 L442 167.67 L441 168 L441 168.67 L440 169 L439.67 170 L439 170 L439 171.67 L438 172 L437.67 173 L437 173 L437 174.67 L436.67 175 L434 175 L433.67 174 L432.67 173.67 L432.67 172 L432 172 L431.67 171 L431 171 L430.67 170 L430 170 L429.67 169 L428.67 168.67 L428.67 167 L428 167 L427.67 166 Z" fill="#FFFFFF" fill-rule="evenodd" /><ns0:path d="M390 166 L390 184.67 L392.67 184.67 L392.67 179 L393.67 178.67 L393.67 178 L394.67 177.67 L395 176.67 L396.67 176.67 L397 177 L397 178.67 L397.67 178.67 L398 179.67 L399 180 L399 181.67 L399.67 181.67 L400 182.67 L400.67 182.67 L401 183.67 L402 184 L402 184.67 L405.67 184.67 L405.67 184 L405 184 L404.67 183 L404 183 L403.67 182 L403 182 L402.67 181 L402 181 L401.67 180 L400.67 179.67 L400.67 178 L400 178 L399.67 177 L399 177 L398.67 176 L397.67 175.67 L397.67 174 L398.67 173.67 L398.67 173 L399.67 172.67 L400 171.67 L400.67 171.67 L400.67 170 L401.67 169.67 L401.67 169 L402.67 168.67 L402.67 168 L403.67 167.67 L403.67 167 L404.67 166.67 L404.67 166 L401 166 L401 166.67 L400 167 L400 168.67 L399 169 L399 169.67 L398 170 L398 170.67 L397 171 L397 171.67 L396 172 L395.67 173 L395 173 L395 174.67 L394.67 175 L393 175 L392.67 174.67 L392.67 166 Z" fill="#FFFFFF" fill-rule="evenodd" /><ns0:path d="M367 166 L367 184.67 L368.67 184.67 L368.67 179 L369.67 178.67 L370 177.67 L372.67 177.67 L373 178.67 L373.67 178.67 L374 179.67 L374.67 179.67 L375 180.67 L376 181 L376 182.67 L377 183 L377 184.67 L380.67 184.67 L380.67 184 L380 184 L379.67 183 L378.67 182.67 L378.67 181 L377.67 180.67 L377.67 179 L376.67 178.67 L376.67 178 L377.67 177.67 L378 176.67 L379.67 176.67 L379.67 175 L380.67 174.67 L380.67 169 L380 169 L379.67 168 L379 168 L378.67 167 L377.67 166.67 L377.67 166 Z M368.67 170 L369.67 169.67 L370 168.67 L376.67 168.67 L377 169.67 L378 170 L378 173.67 L377 174 L377 174.67 L376 175 L375.67 176 L370 176 L369.67 175 L368.67 174.67 L368.67 174 L369.67 173.67 L369.67 173 L368.67 172.67 Z" fill="#FFFFFF" fill-rule="evenodd" /><ns0:path d="M342 167 L342 167.67 L341 168 L341 168.67 L340 169 L339.67 170 L339 170 L339 171.67 L338 172 L338 178.67 L339 179 L339 180.67 L339.67 180.67 L340 181.67 L340.67 181.67 L341 182.67 L341.67 182.67 L342 183.67 L343 184 L343 184.67 L346.67 184.67 L347 185.67 L347.67 185.67 L348 184.67 L352.67 184.67 L352.67 184 L353.67 183.67 L353.67 183 L354.67 182.67 L354.67 182 L355.67 181.67 L356 180.67 L356.67 180.67 L356.67 178 L357.67 177.67 L357.67 173 L356.67 172.67 L356.67 171 L355.67 170.67 L355.67 169 L355 169 L354.67 168 L353.67 167.67 L353.67 167 L352 167 L351.67 166 L344 166 L343.67 167 Z M346 167.67 L349.67 167.67 L350 168.67 L351.67 168.67 L352 169.67 L352.67 169.67 L353 170.67 L354 171 L354 172.67 L355 173 L355 178.67 L354 179 L354 179.67 L353 180 L353 180.67 L352 181 L352 181.67 L351 182 L350.67 183 L345 183 L344.67 182 L344 182 L343.67 181 L343 181 L342.67 180 L342 180 L341.67 179 L340.67 178.67 L340.67 173 L341.67 172.67 L341.67 171 L342.67 170.67 L342.67 170 L343.67 169.67 L344 168.67 L345.67 168.67 Z" fill="#FFFFFF" fill-rule="evenodd" /><ns0:path d="M304 166 L304 167.67 L305 168 L305 171.67 L306 172 L306 174.67 L307 175 L307 177.67 L308 178 L308 180.67 L309 181 L309 183.67 L309.67 183.67 L310 184.67 L312.67 184.67 L312.67 182 L313.67 181.67 L313.67 179 L314.67 178.67 L314.67 177 L315.67 176.67 L315.67 174 L316.67 173.67 L316.67 172 L317 171.67 L317.67 171.67 L318 172.67 L319 173 L319 176.67 L320 177 L320 178.67 L321 179 L321 181.67 L322 182 L322 184.67 L324.67 184.67 L324.67 184 L325.67 183.67 L325.67 181 L326.67 180.67 L326.67 178 L327.67 177.67 L327.67 175 L328.67 174.67 L328.67 172 L329.67 171.67 L329.67 168 L330.67 167.67 L330.67 166 L328 166 L328 168.67 L327 169 L327 171.67 L326 172 L326 174.67 L325 175 L325 178.67 L324.67 179 L323 179 L322.67 178.67 L322.67 177 L321.67 176.67 L321.67 174 L320.67 173.67 L320.67 171 L319.67 170.67 L319.67 168 L318.67 167.67 L318.67 166 L316 166 L316 168.67 L315 169 L315 171.67 L314 172 L314 174.67 L313 175 L313 177.67 L312 178 L311.67 179 L310 179 L309.67 178.67 L309.67 175 L308.67 174.67 L308.67 172 L307.67 171.67 L307.67 168 L306.67 167.67 L306.67 166 Z" fill="#FFFFFF" fill-rule="evenodd" /><ns0:path d="M267 166 L267 184.67 L269.67 184.67 L269.67 173 L270 172.67 L271.67 172.67 L272 173 L272 174.67 L272.67 174.67 L273 175.67 L273.67 175.67 L274 176.67 L274.67 176.67 L275 177.67 L275.67 177.67 L276 178.67 L276.67 178.67 L277 179.67 L277.67 179.67 L278 180.67 L279 181 L279 182.67 L279.67 182.67 L280 183.67 L281 184 L281 184.67 L282.67 184.67 L282.67 166 L280 166 L280 175.67 L281 176 L281 177.67 L280 178 L279.67 179 L279 179 L278.67 178 L277.67 177.67 L277.67 176 L277 176 L276.67 175 L276 175 L275.67 174 L274.67 173.67 L274.67 172 L274 172 L273.67 171 L273 171 L272.67 170 L272 170 L271.67 169 L271 169 L270.67 168 L270 168 L269.67 167 L268.67 166.67 L268.67 166 Z" fill="#FFFFFF" fill-rule="evenodd" /><ns0:path d="M244 166 L244 166.67 L243 167 L242.67 168 L241 168 L241 168.67 L240 169 L239.67 170 L239 170 L239 174.67 L238 175 L238 176.67 L239 177 L239 180.67 L239.67 180.67 L240 181.67 L240.67 181.67 L241 182.67 L242 183 L242 183.67 L243.67 183.67 L244 184.67 L247.67 184.67 L248 185.67 L248.67 185.67 L249 184.67 L252.67 184.67 L252.67 184 L253.67 183.67 L254 182.67 L255.67 182.67 L255.67 182 L256.67 181.67 L256.67 180 L257.67 179.67 L257.67 172 L256.67 171.67 L256.67 170 L256 170 L255.67 169 L255 169 L254.67 168 L254 168 L253.67 167 L252.67 166.67 L252.67 166 Z M247 167.67 L249.67 167.67 L250 168.67 L251.67 168.67 L252 169.67 L252.67 169.67 L253 170.67 L253.67 170.67 L254 171.67 L255 172 L255 173.67 L256 174 L256 175.67 L255 176 L255 178.67 L254 179 L254 179.67 L253 180 L253 180.67 L252 181 L252 181.67 L251 182 L250.67 183 L245 183 L244.67 182 L244 182 L243.67 181 L243 181 L242.67 180 L241.67 179.67 L241.67 178 L240.67 177.67 L240.67 174 L241.67 173.67 L241.67 172 L242.67 171.67 L242.67 170 L243 169.67 L244.67 169.67 L245 168.67 L246.67 168.67 Z" fill="#FFFFFF" fill-rule="evenodd" /><ns0:path d="M226 166 L226 166.67 L227 167 L227 175.67 L226 176 L226 184.67 L229.67 184.67 L229.67 184 L228.67 183.67 L228.67 183 L229.67 182.67 L229.67 166 Z" fill="#FFFFFF" fill-rule="evenodd" /><ns0:path d="M204 166 L204 168.67 L205.67 168.67 L206 167.67 L208.67 167.67 L209 168.67 L210 169 L210 184.67 L211.67 184.67 L211.67 181 L212.67 180.67 L212.67 168 L213.67 167.67 L214 168.67 L214.67 168.67 L215 167.67 L216.67 167.67 L217 168.67 L217.67 168.67 L217.67 167 L218.67 166.67 L218.67 166 Z" fill="#FFFFFF" fill-rule="evenodd" /><ns0:path d="M185 166 L184.67 167 L183 167 L183 167.67 L182 168 L182 168.67 L181 169 L180.67 170 L180 170 L180 172.67 L179 173 L179 178.67 L180 179 L180 180.67 L181 181 L181 182.67 L182.67 182.67 L183 183.67 L184 184 L184 184.67 L192.67 184.67 L193 183.67 L194.67 183.67 L194.67 183 L195.67 182.67 L195.67 181 L195 181 L194.67 180 L194 180 L194 180.67 L193 181 L193 181.67 L192 182 L191.67 183 L186 183 L185.67 182 L184 182 L183.67 181.67 L183.67 180 L182.67 179.67 L182.67 178 L181.67 177.67 L181.67 173 L182.67 172.67 L182.67 171 L183.67 170.67 L183.67 170 L184.67 169.67 L185 168.67 L187.67 168.67 L188 167.67 L189.67 167.67 L190 168.67 L191.67 168.67 L192 169.67 L193.67 169.67 L194 170.67 L194.67 170.67 L194.67 170 L195.67 169.67 L195.67 168 L195 168 L194.67 167 L193 167 L192.67 166 Z" fill="#FFFFFF" fill-rule="evenodd" /><ns0:path d="M155 166 L155 181.67 L155.67 181.67 L156 182.67 L156.67 182.67 L157 183.67 L158 184 L158 184.67 L161.67 184.67 L162 185.67 L163.67 185.67 L164 184.67 L166.67 184.67 L166.67 184 L167.67 183.67 L167.67 183 L168.67 182.67 L169 181.67 L169.67 181.67 L169.67 166 L168 166 L168 178.67 L167 179 L167 180.67 L166 181 L166 181.67 L165 182 L164.67 183 L160 183 L159.67 182 L159 182 L158.67 181 L157.67 180.67 L157.67 172 L156.67 171.67 L156.67 166 Z" fill="#FFFFFF" fill-rule="evenodd" /><ns0:path d="M131 166 L131 184.67 L133.67 184.67 L133.67 179 L134.67 178.67 L135 177.67 L137.67 177.67 L138 178.67 L138.67 178.67 L139 179.67 L140 180 L140 181.67 L140.67 181.67 L141 182.67 L142 183 L142 184.67 L145.67 184.67 L145.67 184 L145 184 L144.67 183 L144 183 L143.67 182 L142.67 181.67 L142.67 180 L141.67 179.67 L141.67 177 L142 176.67 L143.67 176.67 L143.67 176 L144.67 175.67 L144.67 174 L145.67 173.67 L145.67 170 L144.67 169.67 L144.67 168 L144 168 L143.67 167 L142.67 166.67 L142.67 166 Z M133.67 169 L134.67 168.67 L135 167.67 L135.67 167.67 L136 168.67 L141.67 168.67 L142 169 L142 170.67 L143 171 L143 173.67 L142 174 L142 174.67 L141 175 L140.67 176 L134 176 L133.67 175.67 Z" fill="#FFFFFF" fill-rule="evenodd" /><ns0:path d="M108 166 L108 167.67 L112.67 167.67 L113 168.67 L114 169 L114 184.67 L116.67 184.67 L116.67 168 L117 167.67 L122.67 167.67 L122.67 166 Z" fill="#FFFFFF" fill-rule="evenodd" /><ns0:path d="M90 166 L90 166.67 L89 167 L88.67 168 L88 168 L88 173.67 L88.67 173.67 L89 174.67 L90 175 L90 175.67 L92.67 175.67 L93 176.67 L95.67 176.67 L96 177.67 L96.67 177.67 L97 178.67 L98 179 L98 181.67 L97 182 L96.67 183 L92 183 L91.67 182 L90 182 L89.67 181.67 L89.67 180 L89 180 L88.67 181 L87 181 L87 181.67 L88 182 L88 183.67 L89.67 183.67 L90 184.67 L92.67 184.67 L93 185.67 L94.67 185.67 L95 184.67 L98.67 184.67 L98.67 183 L99.67 182.67 L100 181.67 L100.67 181.67 L100.67 178 L100 178 L99.67 177 L99 177 L98.67 176 L97.67 175.67 L97.67 175 L96 175 L95.67 174 L92 174 L91.67 173 L90.67 172.67 L90.67 169 L91 168.67 L92.67 168.67 L93 167.67 L94.67 167.67 L95 168.67 L96.67 168.67 L97 169.67 L99.67 169.67 L99.67 168 L99 168 L98.67 167 L97.67 166.67 L97.67 166 Z" fill="#FFFFFF" fill-rule="evenodd" /><ns0:path d="M62 166 L62 184.67 L64.67 184.67 L64.67 173 L65 172.67 L65.67 172.67 L66 173.67 L66.67 173.67 L67 174.67 L67.67 174.67 L68 175.67 L68.67 175.67 L69 176.67 L69.67 176.67 L70 177.67 L70.67 177.67 L71 178.67 L72 179 L72 180.67 L72.67 180.67 L73 181.67 L73.67 181.67 L74 182.67 L74.67 182.67 L75 183.67 L76 184 L76 184.67 L77.67 184.67 L77.67 166 L75 166 L75 178.67 L74.67 179 L74 179 L73.67 178 L72.67 177.67 L72.67 176 L72 176 L71.67 175 L71 175 L70.67 174 L70 174 L69.67 173 L69 173 L68.67 172 L67.67 171.67 L67.67 170 L67 170 L66.67 169 L66 169 L65.67 168 L65 168 L64.67 167 L63.67 166.67 L63.67 166 Z" fill="#FFFFFF" fill-rule="evenodd" /><ns0:path d="M37 167 L37 167.67 L36 168 L36 168.67 L35 169 L34.67 170 L34 170 L34 172.67 L33 173 L33 178.67 L34 179 L34 180.67 L34.67 180.67 L35 181.67 L35.67 181.67 L36 182.67 L36.67 182.67 L37 183.67 L38 184 L38 184.67 L41.67 184.67 L42 185.67 L43.67 185.67 L44 184.67 L47.67 184.67 L47.67 184 L48.67 183.67 L48.67 183 L49.67 182.67 L49.67 182 L50.67 181.67 L51 180.67 L51.67 180.67 L51.67 179 L52.67 178.67 L52.67 172 L51.67 171.67 L51.67 170 L51 170 L50.67 169 L50 169 L49.67 168 L48.67 167.67 L48.67 167 L47 167 L46.67 166 L39 166 L38.67 167 Z M41 167.67 L44.67 167.67 L45 168.67 L46.67 168.67 L47 169.67 L47.67 169.67 L48 170.67 L49 171 L49 172.67 L50 173 L50 178.67 L49 179 L49 179.67 L48 180 L48 180.67 L47 181 L47 181.67 L46 182 L45.67 183 L41 183 L40.67 182 L39 182 L38.67 181 L38 181 L37.67 180 L36.67 179.67 L36.67 178 L35.67 177.67 L35.67 173 L36.67 172.67 L36.67 171 L37.67 170.67 L37.67 170 L38.67 169.67 L39 168.67 L40.67 168.67 Z" fill="#FFFFFF" fill-rule="evenodd" /><ns0:path d="M11 167 L11 167.67 L10 168 L9.67 169 L9 169 L9 170.67 L8 171 L8 173.67 L7 174 L7 176.67 L8 177 L8 179.67 L9 180 L9 181.67 L9.67 181.67 L10 182.67 L11 183 L11 183.67 L12.67 183.67 L13 184.67 L16.67 184.67 L17 185.67 L18.67 185.67 L19 184.67 L21.67 184.67 L21.67 184 L22.67 183.67 L23 182.67 L24.67 182.67 L24.67 181 L24 181 L23.67 180 L22 180 L22 181.67 L21.67 182 L20 182 L19.67 183 L15 183 L14.67 182 L13 182 L12.67 181 L11.67 180.67 L11.67 179 L10.67 178.67 L10.67 177 L9.67 176.67 L9.67 174 L10.67 173.67 L10.67 172 L11.67 171.67 L11.67 171 L12.67 170.67 L12.67 170 L13.67 169.67 L14 168.67 L15.67 168.67 L16 167.67 L18.67 167.67 L19 168.67 L20.67 168.67 L21 169.67 L22 170 L22 170.67 L23.67 170.67 L23.67 170 L24.67 169.67 L24.67 169 L24 169 L23.67 168 L23 168 L22.67 167 L21.67 166.67 L21.67 166 L13 166 L12.67 167 Z" fill="#FFFFFF" fill-rule="evenodd" /><ns0:path d="M675 15 L668 26 L665 44.67 L667 55.67 L671 63.67 L679 72.67 L690 78.67 L705 81.67 L773.67 80.67 L779.67 82.67 L784 87 L785 95.67 L780.67 103 L774.67 105 L678 105 L665 125.67 L662 128 L661 131.67 L785.67 131.67 L796.67 127.67 L808.67 117.67 L815.67 102.67 L815.67 83 L809.67 69 L802.67 62 L784.67 54 L707 54 L698.67 48.67 L696.67 44.67 L696.67 39 L702 31.67 L707 29.67 L796.67 29.67 L814.67 3 L698 3 L684 8 Z" fill="#FFFFFF" fill-rule="evenodd" /><ns0:path d="M175 3 L228 131.67 L262.67 130.67 L295 48.67 L300 54 L331 131.67 L364.67 131.67 L418.67 3.67 L382 4 L350 85.67 L346 90 L310.67 3 L282 3 L248 88.67 L245 90 L210.67 3 Z" fill="#FFFFFF" fill-rule="evenodd" /><ns0:path d="M13 30 L13 31.67 L11 33 L11 35.67 L8 39 L4 52 L4 58.67 L3 59 L4 81.67 L7 89 L7 92.67 L13 104.67 L19 111 L19 112.67 L28 120.67 L40 127.67 L53 131.67 L154.67 131.67 L162.67 105 L66 105 L54 101 L44.67 93.67 L38.67 83.67 L35.67 73.67 L36.67 57 L41.67 45 L51 35.67 L62 30.67 L66.67 30.67 L67 29.67 L162.67 29.67 L159.67 21.67 L159.67 18 L157.67 15.67 L153.67 3 L55 3 L54.67 4 L46 5 L34 10 L32.67 12 L28 14 L23.67 19 L22 19 Z" fill="#FFFFFF" fill-rule="evenodd" /><ns0:path d="M526 227 L526 227.67 L525 228 L525 231.67 L526.67 231.67 L527 232.67 L528.67 232.67 L528.67 232 L529.67 231.67 L530 230.67 L530.67 230.67 L530.67 228 L530 228 L529.67 227 Z" fill="#EA8F0C" fill-rule="evenodd" /><ns0:path d="M401 227 L401 227.67 L400 228 L400 231.67 L401.67 231.67 L402 232.67 L403.67 232.67 L403.67 232 L404.67 231.67 L405 230.67 L405.67 230.67 L405.67 228 L405 228 L404.67 227 Z" fill="#EA8F0C" fill-rule="evenodd" /><ns0:path d="M237 227 L237 228.67 L236 229 L236 229.67 L237 230 L237 231.67 L238.67 231.67 L239 232.67 L240.67 232.67 L240.67 232 L241.67 231.67 L242 230.67 L242.67 230.67 L242.67 229 L241.67 228.67 L241.67 227 Z" fill="#EA8F0C" fill-rule="evenodd" /><ns0:path d="M439 3 L440 132.67 L471.67 131.67 L471.67 57 L473 53.67 L537 116.67 L539.67 116.67 L542.67 112 L599.67 55.67 L601 57 L601 132.67 L633.67 131.67 L633.67 3 L608 3 L538.67 73 L469.67 3 Z" fill="#EA8F0C" fill-rule="evenodd" /><ns0:path d="M811.67 166 L811 166 L811 184.67 L810.67 185 L809 185 L808.67 184.67 L808.67 174 L808 174 L807.67 173 L807 173 L807 173.67 L808 174 L808 184.67 L808.67 184.67 L809 185.67 L811.67 185.67 Z" fill="#D5DDE6" fill-rule="evenodd" /><ns0:path d="M626 166 L626 184.67 L626.67 184.67 L627 185.67 L629.67 185.67 L629.67 174 L630.67 173.67 L630.67 173 L629 173 L629 184.67 L628.67 185 L627 185 L626.67 184.67 L626.67 166 Z" fill="#D5DDE6" fill-rule="evenodd" /><ns0:path d="M366 166 L366 184.67 L366.67 184.67 L367 185.67 L369.67 185.67 L369.67 179 L370 178.67 L372.67 178.67 L372.67 178 L370 178 L370 178.67 L369 179 L369 184.67 L368.67 185 L367 185 L366.67 184.67 L366.67 166 Z" fill="#D5DDE6" fill-rule="evenodd" /><ns0:path d="M228 132 L228 132.67 L261.67 132.67 L261.67 132 Z" fill="#D5DDE6" fill-rule="evenodd" /><ns0:path d="M59 132 L59 132.67 L154.67 132.67 L154.67 132 Z" fill="#D5DDE6" fill-rule="evenodd" /><ns0:path d="M660 131 L660 132.67 L780.67 132.67 L780.67 132 L661 132 L660.67 131 Z" fill="#D5DDE6" fill-rule="evenodd" /><ns0:path d="M365.67 131 L365 131 L364.67 132 L332 132 L332 132.67 L364.67 132.67 L364.67 132 L365.67 131.67 Z" fill="#D5DDE6" fill-rule="evenodd" /><ns0:path d="M713 104 L713 104.67 L754.67 104.67 L754.67 104 Z" fill="#D5DDE6" fill-rule="evenodd" /><ns0:path d="M89 104 L89 104.67 L122.67 104.67 L122.67 104 Z" fill="#D5DDE6" fill-rule="evenodd" /><ns0:path d="M708 81 L708 81.67 L773.67 81.67 L773.67 81 Z" fill="#D5DDE6" fill-rule="evenodd" /><ns0:path d="M707 53 L707 53.67 L779.67 53.67 L779.67 53 Z" fill="#D5DDE6" fill-rule="evenodd" /><ns0:path d="M67 30 L67 30.67 L162.67 30.67 L162.67 30 Z" fill="#D5DDE6" fill-rule="evenodd" /><ns0:path d="M797.67 29 L797 29 L796.67 30 L707 30 L707 30.67 L796.67 30.67 L796.67 30 L797.67 29.67 Z" fill="#D5DDE6" fill-rule="evenodd" /><ns0:path d="M692 231 L692 231.67 L812.67 231.67 L812.67 231 Z" fill="#E4EAF2" fill-rule="evenodd" /><ns0:path d="M6 229 L6 230.67 L6.67 230.67 L7 231.67 L126.67 231.67 L126.67 231 L7 231 L6.67 230.67 L6.67 229 Z" fill="#E4EAF2" fill-rule="evenodd" /><ns0:path d="M701 2 L701 2.67 L814.67 2.67 L815 3.67 L814 4 L814 4.67 L814.67 4.67 L814.67 4 L815.67 3.67 L815.67 2 Z" fill="#E4EAF2" fill-rule="evenodd" /><ns0:path d="M383 2 L383 2.67 L417.67 2.67 L417.67 2 Z" fill="#E4EAF2" fill-rule="evenodd" /><ns0:path d="M281 3 L281 3.67 L281.67 3.67 L282 2.67 L310.67 2.67 L311 3.67 L311.67 3.67 L311.67 3 L311 3 L310.67 2 L282 2 L282 2.67 Z" fill="#E4EAF2" fill-rule="evenodd" /><ns0:path d="M174 3.67 L174.67 3.67 L175 2.67 L210.67 2.67 L210.67 2 L175 2 L175 2.67 L174 3 Z" fill="#E4EAF2" fill-rule="evenodd" /><ns0:path d="M59 2 L59 2.67 L153.67 2.67 L153.67 2 Z" fill="#E4EAF2" fill-rule="evenodd" /><ns0:path d="M737 133 L737 133.67 L779.67 133.67 L779.67 133 Z" fill="#F2F5F8" fill-rule="evenodd" /><ns0:path d="M663 133 L663 133.67 L728.67 133.67 L728.67 133 Z" fill="#F2F5F8" fill-rule="evenodd" /><ns0:path d="M62 133 L62 133.67 L116.67 133.67 L116.67 133 Z" fill="#F2F5F8" fill-rule="evenodd" /><ns0:path d="M494 74 L494 74.67 L494.67 74.67 L495 75.67 L495.67 75.67 L496 76.67 L496.67 76.67 L497 77.67 L497.67 77.67 L498 78.67 L498.67 78.67 L499 79.67 L499.67 79.67 L500 80.67 L500.67 80.67 L501 81.67 L501.67 81.67 L502 82.67 L502.67 82.67 L503 83.67 L503.67 83.67 L504 84.67 L504.67 84.67 L505 85.67 L505.67 85.67 L506 86.67 L506.67 86.67 L507 87.67 L507.67 87.67 L508 88.67 L508.67 88.67 L509 89.67 L509.67 89.67 L510 90.67 L510.67 90.67 L511 91.67 L511.67 91.67 L512 92.67 L512.67 92.67 L513 93.67 L513.67 93.67 L514 94.67 L514.67 94.67 L515 95.67 L515.67 95.67 L516 96.67 L516.67 96.67 L517 97.67 L517.67 97.67 L518 98.67 L518.67 98.67 L519 99.67 L519.67 99.67 L520 100.67 L520.67 100.67 L521 101.67 L521.67 101.67 L522 102.67 L522.67 102.67 L523 103.67 L523.67 103.67 L524 104.67 L524.67 104.67 L525 105.67 L525.67 105.67 L526 106.67 L526.67 106.67 L527 107.67 L527.67 107.67 L528 108.67 L528.67 108.67 L529 109.67 L529.67 109.67 L530 110.67 L530.67 110.67 L531 111.67 L531.67 111.67 L532 112.67 L532.67 112.67 L533 113.67 L533.67 113.67 L534 114.67 L534.67 114.67 L535 115.67 L535.67 115.67 L536 116.67 L536.67 116.67 L536.67 116 L536 116 L535.67 115 L535 115 L534.67 114 L534 114 L533.67 113 L533 113 L532.67 112 L532 112 L531.67 111 L531 111 L530.67 110 L530 110 L529.67 109 L529 109 L528.67 108 L528 108 L527.67 107 L527 107 L526.67 106 L526 106 L525.67 105 L525 105 L524.67 104 L524 104 L523.67 103 L523 103 L522.67 102 L522 102 L521.67 101 L521 101 L520.67 100 L520 100 L519.67 99 L519 99 L518.67 98 L518 98 L517.67 97 L517 97 L516.67 96 L516 96 L515.67 95 L515 95 L514.67 94 L514 94 L513.67 93 L513 93 L512.67 92 L512 92 L511.67 91 L511 91 L510.67 90 L510 90 L509.67 89 L509 89 L508.67 88 L508 88 L507.67 87 L507 87 L506.67 86 L506 86 L505.67 85 L505 85 L504.67 84 L504 84 L503.67 83 L503 83 L502.67 82 L502 82 L501.67 81 L501 81 L500.67 80 L500 80 L499.67 79 L499 79 L498.67 78 L498 78 L497.67 77 L497 77 L496.67 76 L496 76 L495.67 75 L495 75 L494.67 74 Z" fill="#F2F5F8" fill-rule="evenodd" /><ns0:path d="M472 57 L472 122.67 L472.67 122.67 L472.67 57 Z" fill="#F2F5F8" fill-rule="evenodd" /><ns0:path d="M599 56 L599 56.67 L598 57 L598 57.67 L597 58 L597 58.67 L596 59 L596 59.67 L595 60 L595 60.67 L594 61 L594 61.67 L593 62 L593 62.67 L592 63 L592 63.67 L591 64 L591 64.67 L590 65 L590 65.67 L590.67 65.67 L590.67 65 L591.67 64.67 L591.67 64 L592.67 63.67 L592.67 63 L593.67 62.67 L593.67 62 L594.67 61.67 L594.67 61 L595.67 60.67 L595.67 60 L596.67 59.67 L596.67 59 L597.67 58.67 L597.67 58 L598.67 57.67 L599 56.67 L600 57 L600 132.67 L600.67 132.67 L600.67 57 L600 57 L599.67 56 Z" fill="#F2F5F8" fill-rule="evenodd" /><ns0:path d="M438 5 L438 131.67 L438.67 131.67 L439 132.67 L439.67 132.67 L439.67 132 L438.67 131.67 L438.67 5 Z" fill="#F2F5F8" fill-rule="evenodd" /><ns0:path d="M631 2 L631 2.67 L634 3 L634 131.67 L632 132 L632 132.67 L633.67 132.67 L633.67 132 L634.67 131.67 L634.67 3 L634 3 L633.67 2 Z" fill="#F2F5F8" fill-rule="evenodd" /><ns0:path d="M618.67 2 L608 2 L608 2.67 L607 3 L607 3.67 L606 4 L606 4.67 L605 5 L605 5.67 L604 6 L604 6.67 L603 7 L603 7.67 L602 8 L602 8.67 L601 9 L601 9.67 L600 10 L600 10.67 L599 11 L599 11.67 L598 12 L598 12.67 L597 13 L597 13.67 L596 14 L596 14.67 L595 15 L595 15.67 L594 16 L594 16.67 L593 17 L593 17.67 L592 18 L592 18.67 L591 19 L591 19.67 L590 20 L590 20.67 L589 21 L589 21.67 L588 22 L588 22.67 L587 23 L587 23.67 L586 24 L586 24.67 L585 25 L585 25.67 L584 26 L584 26.67 L583 27 L583 27.67 L582 28 L582 28.67 L581 29 L581 29.67 L580 30 L580 30.67 L579 31 L579 31.67 L578 32 L578 32.67 L577 33 L577 33.67 L576 34 L576 34.67 L575 35 L575 35.67 L574 36 L574 36.67 L573 37 L573 37.67 L572 38 L572 38.67 L571 39 L571 39.67 L570 40 L570 40.67 L569 41 L569 41.67 L568 42 L568 42.67 L567 43 L567 43.67 L566 44 L566 44.67 L565 45 L565 45.67 L564 46 L564 46.67 L563 47 L563 47.67 L562 48 L562 48.67 L561 49 L561 49.67 L560 50 L560 50.67 L559 51 L559 51.67 L558 52 L558 52.67 L557 53 L557 53.67 L556 54 L556 54.67 L555 55 L555 55.67 L554 56 L554 56.67 L553 57 L553 57.67 L553.67 57.67 L553.67 57 L554.67 56.67 L554.67 56 L555.67 55.67 L555.67 55 L556.67 54.67 L556.67 54 L557.67 53.67 L557.67 53 L558.67 52.67 L558.67 52 L559.67 51.67 L559.67 51 L560.67 50.67 L560.67 50 L561.67 49.67 L561.67 49 L562.67 48.67 L562.67 48 L563.67 47.67 L563.67 47 L564.67 46.67 L564.67 46 L565.67 45.67 L565.67 45 L566.67 44.67 L566.67 44 L567.67 43.67 L567.67 43 L568.67 42.67 L568.67 42 L569.67 41.67 L569.67 41 L570.67 40.67 L570.67 40 L571.67 39.67 L571.67 39 L572.67 38.67 L572.67 38 L573.67 37.67 L573.67 37 L574.67 36.67 L574.67 36 L575.67 35.67 L575.67 35 L576.67 34.67 L576.67 34 L577.67 33.67 L577.67 33 L578.67 32.67 L578.67 32 L579.67 31.67 L579.67 31 L580.67 30.67 L580.67 30 L581.67 29.67 L581.67 29 L582.67 28.67 L582.67 28 L583.67 27.67 L583.67 27 L584.67 26.67 L584.67 26 L585.67 25.67 L585.67 25 L586.67 24.67 L586.67 24 L587.67 23.67 L587.67 23 L588.67 22.67 L588.67 22 L589.67 21.67 L589.67 21 L590.67 20.67 L590.67 20 L591.67 19.67 L591.67 19 L592.67 18.67 L592.67 18 L593.67 17.67 L593.67 17 L594.67 16.67 L594.67 16 L595.67 15.67 L595.67 15 L596.67 14.67 L596.67 14 L597.67 13.67 L597.67 13 L598.67 12.67 L598.67 12 L599.67 11.67 L599.67 11 L600.67 10.67 L600.67 10 L601.67 9.67 L601.67 9 L602.67 8.67 L602.67 8 L603.67 7.67 L603.67 7 L604.67 6.67 L604.67 6 L605.67 5.67 L605.67 5 L606.67 4.67 L606.67 4 L607.67 3.67 L608 2.67 L618.67 2.67 Z" fill="#F2F5F8" fill-rule="evenodd" /></g></svg>